<svg width="46" height="55" viewBox="0 0 46 55" fill="none" xmlns="http://www.w3.org/2000/svg">
  <g filter="url(#filter0_d_1989_10749)">
    <path class="locator-places-map__marker-pin" d="M22.9091 41L22.5496 41.3475L22.9091 41.7193L23.2686 41.3475L22.9091 41ZM22.9091 41C23.2686 41.3475 23.2687 41.3474 23.2688 41.3473L23.2694 41.3467L23.2715 41.3445L23.2794 41.3363L23.3099 41.3045C23.3368 41.2765 23.3763 41.2351 23.4278 41.1809C23.5308 41.0725 23.6813 40.913 23.8727 40.7075C24.2553 40.2966 24.8014 39.7016 25.4563 38.9637C26.7658 37.4884 28.5129 35.4395 30.2612 33.147C32.0081 30.8563 33.7641 28.3122 35.0856 25.8474C36.3991 23.3974 37.3182 20.9631 37.3182 18.9091C37.3182 10.9284 30.8898 4.5 22.9091 4.5C14.9284 4.5 8.5 10.9284 8.5 18.9091C8.5 20.9631 9.41911 23.3974 10.7326 25.8474C12.0541 28.3122 13.8101 30.8563 15.557 33.147C17.3053 35.4395 19.0524 37.4884 20.3619 38.9637C21.0168 39.7016 21.5628 40.2966 21.9455 40.7075C22.1369 40.913 22.2874 41.0725 22.3904 41.1809C22.4418 41.2351 22.4814 41.2765 22.5082 41.3045L22.5388 41.3363L22.5467 41.3445L22.5488 41.3467L22.5494 41.3473C22.5495 41.3474 22.5496 41.3475 22.9091 41ZM16.9318 18.6364C16.9318 15.3671 19.6398 12.6591 22.9091 12.6591C26.1818 12.6591 28.8864 15.3023 28.8864 18.6364C28.8864 21.9091 26.2432 24.6136 22.9091 24.6136C19.6398 24.6136 16.9318 21.9057 16.9318 18.6364Z" fill="white" stroke="#219653"/>
  </g>
  <rect class="locator-places-map__marker-pin-active" x="10.75" y="6.75" width="23.75" height="23.75" rx="8" fill="white"/>
  <path class="locator-places-map__marker-pin-active" d="M15.4506 12.1926C15.2403 12.1926 15.0641 12.1211 14.9218 11.978C14.7796 11.8349 14.7084 11.6576 14.7084 11.4461C14.7084 11.2346 14.7796 11.0587 14.9218 10.9185C15.0641 10.7783 15.2403 10.7083 15.4506 10.7083H29.8491C30.0594 10.7083 30.2356 10.7798 30.3779 10.9229C30.5201 11.066 30.5913 11.2433 30.5913 11.4548C30.5913 11.6663 30.5201 11.8421 30.3779 11.9823C30.2356 12.1225 30.0594 12.1926 29.8491 12.1926H15.4506ZM15.5743 26.5416C15.364 26.5416 15.1878 26.4705 15.0455 26.3282C14.9033 26.186 14.8321 26.0097 14.8321 25.7994V20.1588H14.2137C13.9804 20.1588 13.7902 20.0681 13.6429 19.8866C13.4956 19.7052 13.4467 19.4991 13.4962 19.2681L14.5847 14.2708C14.6177 14.0893 14.7023 13.945 14.8383 13.8378C14.9744 13.7306 15.129 13.677 15.3022 13.677H29.9728C30.1459 13.677 30.3006 13.7306 30.4366 13.8378C30.5727 13.945 30.6572 14.0893 30.6902 14.2708L31.7788 19.2681C31.8282 19.4991 31.7793 19.7052 31.632 19.8866C31.4848 20.0681 31.2945 20.1588 31.0613 20.1588H30.4428V25.7994C30.4428 26.0097 30.3713 26.186 30.2282 26.3282C30.0851 26.4705 29.9078 26.5416 29.6963 26.5416C29.4848 26.5416 29.3089 26.4705 29.1687 26.3282C29.0285 26.186 28.9584 26.0097 28.9584 25.7994V20.1588H24.2827V25.7994C24.2827 26.0097 24.2115 26.186 24.0693 26.3282C23.927 26.4705 23.7508 26.5416 23.5405 26.5416H15.5743ZM16.3165 25.0572H22.7983V20.1588H16.3165V25.0572ZM15.0795 18.6744H30.1954L29.4285 15.1614H15.8465L15.0795 18.6744Z" fill="#228524"/>
  <defs>
    <filter id="filter0_d_1989_10749" x="0" y="0" width="45.8181" height="54.4387" filterUnits="userSpaceOnUse" color-interpolation-filters="sRGB">
      <feFlood flood-opacity="0" result="BackgroundImageFix"/>
      <feColorMatrix in="SourceAlpha" type="matrix" values="0 0 0 0 0 0 0 0 0 0 0 0 0 0 0 0 0 0 127 0" result="hardAlpha"/>
      <feOffset dy="4"/>
      <feGaussianBlur stdDeviation="4"/>
      <feColorMatrix type="matrix" values="0 0 0 0 0 0 0 0 0 0 0 0 0 0 0 0 0 0 0.1 0"/>
      <feBlend mode="normal" in2="BackgroundImageFix" result="effect1_dropShadow_1989_10749"/>
      <feBlend mode="normal" in="SourceGraphic" in2="effect1_dropShadow_1989_10749" result="shape"/>
    </filter>
  </defs>
</svg>
