<svg xmlns="http://www.w3.org/2000/svg" width="44" height="51" fill="none"><g filter="url(#a)"><path fill="#228524" stroke="#fff" d="m22.145 37.55-.36.348.36.372.36-.372-.36-.347Zm0 0 .36.348.002-.003.007-.007.028-.028.105-.11.396-.422a92.072 92.072 0 0 0 5.694-6.736c1.557-2.042 3.123-4.31 4.302-6.508 1.172-2.183 1.996-4.36 1.996-6.204 0-7.137-5.751-12.885-12.89-12.885A12.861 12.861 0 0 0 9.255 17.88c0 1.843.825 4.02 1.996 6.204 1.179 2.198 2.745 4.466 4.302 6.507a92.16 92.16 0 0 0 6.09 7.158l.106.11.027.03.007.006.002.002v.001l.36-.347Zm-5.27-19.913c0-2.88 2.388-5.267 5.27-5.267 2.886 0 5.27 2.33 5.27 5.267a5.266 5.266 0 0 1-5.27 5.268c-2.882 0-5.27-2.387-5.27-5.268Z"/></g><defs><filter id="a" width="42.779" height="50.494" x=".756" y=".495" color-interpolation-filters="sRGB" filterUnits="userSpaceOnUse"><feFlood flood-opacity="0" result="BackgroundImageFix"/><feColorMatrix in="SourceAlpha" result="hardAlpha" values="0 0 0 0 0 0 0 0 0 0 0 0 0 0 0 0 0 0 127 0"/><feOffset dy="4"/><feGaussianBlur stdDeviation="4"/><feColorMatrix values="0 0 0 0 0 0 0 0 0 0 0 0 0 0 0 0 0 0 0.1 0"/><feBlend in2="BackgroundImageFix" result="effect1_dropShadow_2145_30629"/><feBlend in="SourceGraphic" in2="effect1_dropShadow_2145_30629" result="shape"/></filter></defs></svg>