<svg xmlns="http://www.w3.org/2000/svg" width="1080" height="1080" fill="none"><path fill="#059BDC" d="M287.12 851.56c-25.82-75.3-58.81-92.52-77.24-136.74-33.3-79.89 36.36-114.89 37.68-226.15 1.6-135.32-100.53-161.01-82.89-257.7C184.4 122.8 336.39 22.43 445.36 43.39c85.29 16.41 81.75 95.13 222.29 168.29 95.51 49.72 123.12 26.89 173.31 71.88 76.75 68.79 96.93 198.1 58.4 294.52-38.67 96.76-108.61 90.62-131.87 185.82-21 85.94 27.86 124.18-7.54 185.83-37.38 65.1-126.16 82.2-154.47 87.65-120.2 23.15-260.95-26.36-299.53-108.69-11.97-25.55-2.52-29.54-18.84-77.13z" opacity=".1"/><path fill="#8DC63F" d="M391.79 616V474.92c0-14.64 11.87-26.5 26.5-26.5h245.73c13.93 0 25.22 11.29 25.22 25.22V616"/><path stroke="#222" stroke-miterlimit="10" stroke-width="4" d="M558.21 156.2c-.19-5.65-3.02-67.2-39.79-89.14-6.31-3.77-19.28-11.5-35.06-8.6 0 0-13.46 2.47-22.71 12.36-16.31 17.42-7.88 61.02 21.48 106.73"/><path fill="#EAB716" d="m415.38 165.48 74.44 192.83a5.44 5.44 0 0 0 6.67 3.24l181.64-55.8c2.9-.89 4.51-3.98 3.58-6.86L616.76 97.58c-1.45-4.49-7.54-5.13-9.89-1.04a5.45 5.45 0 0 1-4.33 2.72l-20.56 1.44c-1.21.08-2.35.57-3.25 1.38l-9.25 8.31c-.38.34-.81.63-1.27.85l-23.44 11.31c-1.06.51-2.27.67-3.43.43l-19.3-3.86c-2-.4-4.05.35-5.32 1.95l-7.66 9.65a5.43 5.43 0 0 1-5.72 1.85l-12.35-3.45a5.4 5.4 0 0 0-2.12-.16l-26.04 3.17a5.42 5.42 0 0 0-3.89 2.41l-12.76 19.42a5.39 5.39 0 0 1-4.12 2.43l-22.02 1.7c-3.63.28-5.96 3.98-4.66 7.39"/><path stroke="#222" stroke-miterlimit="10" stroke-width="4" d="M511.66 175.83c-3.31-4.58-38.77-54.97-23.13-94.84 2.68-6.85 8.19-20.9 22.45-28.27 0 0 12.15-6.29 25.52-4.14 23.56 3.78 43.6 43.41 48.38 97.53"/><path fill="#E6E7E8" d="m324.79 293.02-67.03-49.15v-48.88l44.69-55.56 89.37 75.26z"/><path fill="#BBBDBF" d="m257.76 194.99 16.76 26.07-16.76 22.81z"/><path fill="#D0D2D3" d="m308.45 281.04 67.07-80.08 16.3 13.73-67.03 78.33"/><path fill="#BEE9F6" d="m730.04 321.43-31.64 76.09c-2.48 6.25.58 13.33 6.84 15.8l53.12 21.04c6.09 2.41 12.99-.57 15.4-6.66l29.38-74.17z"/><path fill="#BEE9F6" d="M795.64 228.15c-5.32.56-39.11 26.81-42.31 34.1-5.46 12.44-6.67 24.79-6.82 27.45-.02.28-.14 2.58-.45 5.67-.34 3.44-.51 5.15-.91 6.84-.5 2.13-1.33 5.67-3.93 8.79-2.03 2.43-3.15 2.23-6.66 5.46-2.1 1.93-3.59 3.75-4.52 4.96l39.45 17.43 41.5-112.73-12.71-5.03z"/><path fill="#BEE9F6" d="M820.1 237.84c3.49 4.05 9.34 12.02 11.42 23.43 2.32 12.72-1.28 22.89-3.94 30.39-4.54 12.8-12.11 22.64-13.83 24.68-.18.21-1.66 1.97-3.56 4.44-2.1 2.74-3.15 4.11-4.02 5.61-1.1 1.9-2.91 5.05-3.16 9.1-.19 3.16.77 3.78 1.12 8.54.21 2.85-.85 7.98-1.01 9.5l-39.78-17.11 46.95-110.57 12.71 5.03-2.9 6.95z"/><path fill="#059BDC" d="m822.91 238.37-29.66-11.75c-.52-.21-.78-.8-.57-1.32l.5-1.26c.21-.52.8-.78 1.32-.57l29.66 11.75c.52.21.78.8.57 1.32l-.5 1.26c-.21.52-.8.77-1.32.57M726.247 330.604l-20.703 52.258 74.349 29.453 20.702-52.258zM806.4 200.19l25.01 9.91c1.81.72 2.69 2.76 1.98 4.57l-6.19 15.63a3.526 3.526 0 0 1-4.57 1.98l-25.01-9.91a3.526 3.526 0 0 1-1.98-4.57l6.19-15.63c.72-1.81 2.76-2.7 4.57-1.98"/><path fill="#fff" d="M817.83 244.72c3 3.85 3.52 8.01 3.9 12.83.89 11.13 1.34 16.69.56 21.76-2.2 14.23-9.25 25.14-10.04 24.83-.58-.23 2.56-6.34 4.19-17.3.64-4.31 1.97-13.81 0-25.38-2.13-12.52-6.87-20.07-5.02-21.2 1.25-.77 4.53 2.05 6.42 4.46z"/><path fill="#D0D2D3" d="m687.14 506.33 40.36 20.73c1.26-2.75 2.51-5.51 3.77-8.26 1.01-2.21 2.02-4.43 3.03-6.64 1.67-3.66 3.1-6.72 2.71-10.87-.57-6.14-4.26-10.55-9.41-13.62-5.1-3.04-10.75-5.42-16.07-8.02-.66-.32-1.31-.64-1.97-.96l-18.43 5.82"/><path fill="#E6E7E8" d="M500.96 561.52c9.43-19.18 18.87-38.35 28.3-57.53 12.21-24.82 23.57-50.31 36.71-74.65 1.94-3.6 4.12-5.55 8.21-6.7 12.92-3.62 24.17 2.65 35.38 8.03 11.61 5.58 23.23 11.15 34.84 16.73 24.67 11.84 49.33 23.68 74 35.53 1.83.88 5.56 3.68 7.66 3.68-10.72 0-20.57-2.08-26.19 9.28-8.57 17.34-16.3 35.23-24.93 52.61l-27.42 55.2-73.09-1.82"/><path fill="#F1F1F2" d="m490.41 546.61-14.14 25.14c-3.04 5.41-1.15 12.26 4.23 15.34l94.66 54.26c5.41 3.1 12.32 1.23 15.42-4.19l15.84-27.65"/><path stroke="#222" stroke-miterlimit="10" stroke-width="2" d="m578.31 456.8 89.98 48.17M566.74 476.89l89.99 48.17M557.21 495.73l42.19 22.59M603.96 520.92l42.19 22.58M545.93 519.42l89.99 48.17M533.84 541.84l42.19 22.59M580.59 567.03l42.19 22.58"/><path fill="#222" stroke="#222" stroke-miterlimit="10" stroke-width="1.07" d="M698.72 506.62c1.73-1.75 3.19-4.06 4.36-5.59 7.33-9.67 19.48-9.06 30.64-6.58-.74-.99-2.25-3.67-3.28-4.49-6.02-4.79-14.77-5.61-21.64-2.19-3.97 1.98-6.84 5.5-9.04 9.28-1.84 3.17-4.91 8.13-5.79 11.83-.11.47 1.01.12 1.47-.03 1.18-.39 2.28-1.22 3.28-2.23ZM590.99 602.31l-90.09-3.68 8.19 5.73z"/><path fill="#E6E7E8" d="m800.85 593.25-34.09-75.82 24.1-42.52 66.27-26.31 40.66 109.54z"/><path fill="#BBBDBF" d="m790.86 474.91 1.73 30.94-25.83 11.58z"/><path fill="#D0D2D3" d="m792.54 574.77 97.83-36.61 7.42 19.98-96.94 35.11"/><mask id="a" width="757" height="1004" x="161" y="36" maskUnits="userSpaceOnUse" style="mask-type:luminance"><path fill="#fff" d="M286.09 847.87c-25.82-75.3-58.81-92.52-77.24-136.74-33.3-79.89 36.36-114.89 37.68-226.15 1.6-135.32-100.53-161.01-82.89-257.7C183.37 119.11 335.36 18.74 444.33 39.71c85.29 16.41 81.75 95.13 222.29 168.29 95.51 49.72 123.12 26.89 173.31 71.88 76.75 68.79 96.93 198.1 58.4 294.52-38.67 96.76-108.61 90.62-131.87 185.82-21 85.94 27.86 124.18-7.54 185.83-37.38 65.1-126.16 82.2-154.47 87.65-120.2 23.15-260.95-26.36-299.53-108.69-11.97-25.55-2.52-29.54-18.84-77.13z"/></mask><g mask="url(#a)"><path fill="#262261" d="M654.25 968.57h17.65c3.51 0 6.36 2.85 6.36 6.36v65.48c0 3.51-2.85 6.36-6.36 6.36h-17.65c-3.51 0-6.36-2.85-6.36-6.36v-65.48c0-3.51 2.85-6.36 6.36-6.36M399.91 968.57h17.65c3.51 0 6.36 2.85 6.36 6.36v65.48c0 3.51-2.85 6.36-6.36 6.36h-17.65c-3.51 0-6.36-2.85-6.36-6.36v-65.48c0-3.51 2.85-6.36 6.36-6.36"/><path fill="#8DC63F" d="m385.17 659.8 32.85 379.11c.38 4.37 4.04 7.73 8.42 7.73h216.39c4.35 0 7.99-3.3 8.42-7.64l36.96-379.2"/><path fill="#8DC63F" stroke="#297F00" stroke-miterlimit="10" stroke-width="2" d="M383.58 659.8h306.23c10.01 0 18.13-7.68 18.13-17.15V616.9c0-9.47-8.12-17.15-18.13-17.15H383.58c-10.01 0-18.13 7.68-18.13 17.15v25.75c0 9.47 8.12 17.15 18.13 17.15Z"/><path fill="#fff" d="M529.25 719.73c21.86-.07 40.19 14.18 45.01 33.38.44 1.76.96 1.87 2.65 1.35 3.96-1.21 7.77-.72 10.58 2.7 2.79 3.41 2.46 7.19.67 10.93-1.02 2.12-2.48 3.96-4.04 5.73-4.44 5.05-8.89 10.09-13.28 15.2-1.4 1.63-2.42 1.67-3.87-.04-4.87-5.76-9.89-11.39-14.81-17.12-1.46-1.71-2.63-3.62-3.3-5.81-2.16-7.07 3.06-13.17 10.34-12.03.98.15 2.18.87 2.84-.08.63-.91-.36-1.92-.77-2.81-6.73-14.69-22.68-22.74-38.42-19.44-15.4 3.23-26.61 17.12-26.88 33.32-.42 26.02 25.13 42.94 48.41 32.49 1.33-.59 1.98-.47 2.79.62 1.39 1.89 2.83 3.75 4.37 5.53 1.1 1.27.8 1.96-.54 2.78-4.44 2.72-9.33 4.2-14.4 4.86-27.49 3.63-49.44-15.58-52.37-39.23-2.87-23.16 10.24-43.62 32.23-50.3 2.23-.68 4.52-1.25 6.83-1.6 2.21-.34 4.48-.33 5.96-.43"/><path fill="#297F00" stroke="#297F00" stroke-miterlimit="10" stroke-width="1.01" d="M397.1 667.12c42.59-6.7 101.28-10.38 168.28 2.78 21.01 4.12 41.48 7 64 17.35 23.65 10.87 41.04 33.74 51.54 43.38l7.3-70.82-175.81.38H387.76l-2.58 3.29.39 4.38 11.54-.74z"/></g><path fill="#EAB716" d="m261.04 513.19 43.48-161.95 177.56 48.02L440.4 561.3z"/><path fill="#FFEDA5" d="m258.67 314.02 49.02 36.66-47.11 162.86-46.2-42.38z"/><path fill="#FFEDA5" d="m258.67 314.02 164.07 43 59.34 42.24-175.13-46.01z"/><path stroke="#EAB716" stroke-miterlimit="10" d="m227.22 482.94 51.81-152.37 160.43 38.35 13.2 9.39-163.43-39.45-52.53 152.77z"/></svg>