<svg xmlns="http://www.w3.org/2000/svg" width="800" height="800" fill="none"><path fill="#DAF1FA" d="M210.101 622.301c-18.422-53.727-41.959-66.014-55.111-97.566-23.759-57.002 25.943-81.976 26.884-161.358 1.144-96.552-71.727-114.882-59.143-183.874 14.078-77.184 122.527-148.798 200.278-133.84 60.856 11.708 58.333 67.876 158.609 120.082 68.145 35.476 87.845 19.185 123.661 51.284 54.766 49.081 69.163 141.35 41.668 210.141-27.593 69.043-77.492 64.656-94.089 132.589-14.98 61.316 19.879 88.6-5.377 132.588-26.671 46.451-90.018 58.651-110.22 62.543-85.764 16.517-186.195-18.811-213.719-77.552-8.543-18.231-1.797-21.079-13.441-55.037"/><path fill="#056635" d="M284.784 454.229v-100.66c0-10.444 8.467-18.91 18.911-18.91h175.332c9.938 0 17.996 8.057 17.996 17.996v101.574"/><path fill="#D1D3D4" d="m495.524 375.978 28.8 14.789 2.688-5.892 2.161-4.736c1.191-2.612 2.209-4.797 1.936-7.755-.404-4.38-3.036-7.53-6.711-9.716-3.641-2.166-7.669-3.87-11.466-5.724l-1.406-.686-13.148 4.152"/><path fill="#E7E8E9" d="m362.678 415.354 20.193-41.049c8.712-17.708 16.819-35.898 26.195-53.263 1.385-2.565 2.94-3.961 5.859-4.778 9.22-2.579 17.241 1.893 25.24 5.733q12.43 5.966 24.858 11.934 26.4 12.675 52.798 25.35c1.309.628 3.968 2.623 5.465 2.623-7.651 0-14.679-1.481-18.687 6.625-6.118 12.369-11.628 25.134-17.79 37.54q-9.784 19.692-19.567 39.382l-52.152-1.296"/><path fill="#F1F1F2" d="m355.154 404.716-10.091 17.94a8.06 8.06 0 0 0 3.017 10.945l67.539 38.716a8.06 8.06 0 0 0 11.004-2.987l11.3-19.726"/><path fill="#231F20" d="m481.659 375.785-64.206-34.371.832-1.556 64.206 34.371zM473.408 390.118l-64.207-34.371.832-1.556 64.207 34.371zM432.504 385.306l-30.103-16.113.832-1.556 30.103 16.113zM465.861 403.278l-30.101-16.113.832-1.556 30.101 16.113zM458.56 420.464l-64.207-34.371.832-1.556 64.207 34.371zM415.825 418.206l-30.102-16.113.832-1.556 30.102 16.113zM449.182 436.178l-30.101-16.113.832-1.556 30.101 16.113z"/><path fill="#F8BE5A" d="m191.491 380.874 31.025-115.555 126.691 34.257-29.733 115.623z"/><path fill="#FFDA66" d="m189.804 238.763 34.975 26.153-33.611 116.202-32.965-30.234z"/><path fill="#FAE596" d="m189.804 238.763 117.065 30.678 42.338 30.136-124.959-32.826z"/><path fill="#377FC1" d="m556.767 230.868-44.608 38.301a8.686 8.686 0 0 0-.724 12.264l27.077 30.477a8.466 8.466 0 0 0 11.951.706l42.551-37.806z"/><path fill="#377FC1" d="M628.535 192.527c-1.144.699-8.275-1.907-10.029-2.031-17.506-1.236-34.555 15.394-43.158 28.92-1.321 2.079-1.982 3.119-2.777 4.067-1.005 1.197-2.673 3.185-5.332 4.337-2.076.899-2.724.408-6.001 1.338a27 27 0 0 0-4.471 1.709l19.532 23.783 62.668-58.475-6.479-7.291s-3.944 3.638-3.953 3.643"/><path fill="#377FC1" d="M641.007 206.563c.924 3.703 2.087 10.657-.252 18.595-2.609 8.852-8.172 14.172-12.277 18.097-7.004 6.697-14.99 10.528-16.739 11.277-.181.078-1.693.723-3.695 1.686-2.22 1.068-3.329 1.602-4.364 2.28-1.308.857-3.478 2.278-4.934 4.784-1.138 1.954-.726 2.656-2.035 5.801-.783 1.881-3.108 4.813-3.697 5.728l-19.846-23.684 65.444-55.349 6.479 7.29z"/><path fill="#20A1D7" d="m629.616 189.546 14.479 16.296a1.207 1.207 0 1 1-1.806 1.604l-14.478-16.296a1.207 1.207 0 0 1 1.805-1.604M551.396 235.46l37.898 42.656-29.982 26.637-37.899-42.654zM642.965 202.174l-9.84-11.075a4.7 4.7 0 0 1 .392-6.634l5.695-5.06a4.7 4.7 0 0 1 6.636.392l9.839 11.074a4.7 4.7 0 0 1-.391 6.635l-5.696 5.06a4.7 4.7 0 0 1-6.635-.392"/><path fill="#231F20" d="M503.788 376.185c1.236-1.249 2.279-2.893 3.108-3.987 5.231-6.898 13.9-6.465 21.863-4.694-.529-.708-1.605-2.618-2.339-3.202-4.292-3.418-10.54-4.005-15.437-1.562-2.835 1.413-4.884 3.926-6.447 6.62-1.31 2.258-3.504 5.797-4.133 8.44-.08.332.721.085 1.045-.022.843-.277 1.624-.869 2.34-1.593"/><path fill="#231F20" d="M517.448 361.709c-2.147 0-4.3.476-6.255 1.45-2.381 1.188-4.427 3.294-6.249 6.436l-.471.806c-1.207 2.056-2.828 4.817-3.483 7.025q.128-.033.312-.095c.69-.226 1.394-.709 2.152-1.476.87-.878 1.644-1.965 2.328-2.922.263-.368.51-.715.74-1.019 5.412-7.136 14.443-6.492 21.202-5.112-.492-.76-1.155-1.78-1.596-2.131-2.451-1.953-5.558-2.962-8.68-2.962m-16.84 16.728c-.218 0-.372-.056-.496-.171a.59.59 0 0 1-.167-.575c.576-2.414 2.392-5.508 3.716-7.765l.469-.803c1.919-3.306 4.092-5.532 6.644-6.804 5.119-2.553 11.524-1.901 15.94 1.616.566.451 1.231 1.479 1.818 2.387.236.363.445.687.604.9l.76 1.016-1.239-.275c-7.156-1.593-16.051-2.518-21.385 4.52a36 36 0 0 0-.724.996c-.704.986-1.502 2.104-2.426 3.038-.865.874-1.69 1.433-2.525 1.708-.433.141-.749.212-.989.212M426.915 444.456l-64.28-2.625 5.846 4.089z"/><path fill="#231F20" d="m364.22 442.366 4.404 3.081 44.02-1.104zm4.118 4.028-7.289-5.098 65.885 2.691-.008.939z"/><path fill="#E7E8E9" d="m610.298 450.29-24.323-54.093 17.191-30.344 47.285-18.774 29.012 78.159z"/><path fill="#BCBEC0" d="m603.166 365.853 1.235 22.078-18.427 8.265z"/><path fill="#D1D3D4" d="m604.369 437.105 69.803-26.123 5.292 14.256-69.167 25.052"/><mask id="a" width="540" height="716" x="120" y="41" maskUnits="userSpaceOnUse" style="mask-type:luminance"><path fill="#fff" d="M121.997 176.874c-12.582 68.99 60.288 87.321 59.143 183.873-.943 79.381-50.643 104.356-26.884 161.357 13.152 31.552 36.691 43.84 55.111 97.567 11.644 33.958 4.9 36.807 13.441 55.036 27.525 58.743 127.956 94.07 213.719 77.552 20.204-3.89 83.549-16.091 110.221-62.542 25.255-43.986-9.604-71.273 5.377-132.589 16.596-67.932 66.495-63.545 94.088-132.589 27.495-68.789 13.098-161.06-41.668-210.14-35.814-32.099-55.516-15.808-123.661-51.285-100.276-52.203-97.755-108.373-158.608-120.08-7.013-1.35-14.275-1.995-21.696-1.994-74.851 0-165.775 65.612-178.583 135.834"/></mask><g mask="url(#a)"><path fill="#262261" d="M480.704 761.59h-4.702a8.485 8.485 0 0 1-8.485-8.486v-38.829a8.486 8.486 0 0 1 8.485-8.485h4.702c4.686 0 8.485 3.8 8.485 8.485v38.829a8.485 8.485 0 0 1-8.485 8.486M299.23 761.59h-4.703a8.485 8.485 0 0 1-8.484-8.486v-38.829a8.486 8.486 0 0 1 8.484-8.485h4.703c4.687 0 8.485 3.8 8.485 8.485v38.829a8.485 8.485 0 0 1-8.485 8.486"/><path fill="#1B9853" d="M280.064 485.477 303.5 755.975a6.034 6.034 0 0 0 6.012 5.512h154.399a6.034 6.034 0 0 0 6.005-5.448l26.372-270.562"/><path fill="#037D3F" d="M278.925 485.477h218.502c7.144 0 12.936-5.478 12.936-12.237v-18.372c0-6.759-5.792-12.237-12.936-12.237H278.925c-7.144 0-12.936 5.478-12.936 12.237v18.372c0 6.759 5.792 12.237 12.936 12.237"/><path fill="#231F20" d="M278.925 443.513c-6.646 0-12.053 5.094-12.053 11.355v18.372c0 6.261 5.407 11.355 12.053 11.355h218.502c6.646 0 12.053-5.094 12.053-11.355v-18.372c0-6.261-5.407-11.355-12.053-11.355zm218.502 42.847H278.925c-7.618 0-13.817-5.887-13.817-13.12v-18.372c0-7.233 6.199-13.119 13.817-13.119h218.502c7.618 0 13.818 5.886 13.818 13.119v18.372c0 7.233-6.2 13.12-13.818 13.12"/><path fill="#fff" d="M382.866 528.238c15.6-.047 28.678 10.12 32.118 23.82.314 1.252.682 1.336 1.892.965 2.827-.866 5.547-.516 7.546 1.93 1.99 2.434 1.758 5.129.477 7.796-.727 1.513-1.773 2.828-2.883 4.089-3.172 3.604-6.346 7.204-9.474 10.843-1.002 1.165-1.727 1.193-2.759-.028-3.475-4.111-7.06-8.128-10.565-12.214-1.044-1.217-1.878-2.58-2.358-4.148-1.541-5.041 2.183-9.397 7.375-8.581.7.111 1.553.623 2.025-.055.452-.646-.258-1.372-.549-2.005-4.8-10.483-16.179-16.229-27.413-13.872-10.986 2.304-18.988 12.213-19.176 23.776-.302 18.568 17.932 30.637 34.54 23.183.945-.426 1.413-.339 1.988.438.994 1.348 2.02 2.678 3.114 3.944.787.908.571 1.398-.384 1.983-3.166 1.941-6.658 2.993-10.273 3.471-19.612 2.59-35.275-11.118-37.364-27.995-2.047-16.523 7.305-31.125 22.999-35.893 1.594-.484 3.228-.888 4.872-1.14 1.578-.243 3.196-.238 4.252-.307"/><path fill="#231F20" d="M288.576 490.702c30.387-4.777 72.266-7.405 120.068 1.98 14.99 2.944 29.595 4.992 45.667 12.379 16.875 7.754 29.281 24.072 36.772 30.948l5.205-50.531-125.444.273h-88.938l-1.842 2.35.282 3.126z"/><path fill="#231F20" d="m280.524 488.237.226 2.517 7.777-.496a356 356 0 0 1 41.265-4.061h-47.669zm76.555-2.04a337.6 337.6 0 0 1 51.651 6.048c2.093.411 4.178.805 6.262 1.197 12.6 2.378 25.63 4.836 39.504 11.212 12.86 5.911 23.112 16.732 30.598 24.635 2.121 2.239 3.988 4.209 5.637 5.78l5.063-49.144-124.95.272zm134.357 50.741-.654-.6c-1.83-1.68-3.918-3.884-6.336-6.436-7.436-7.849-17.619-18.598-30.322-24.436-13.776-6.33-26.75-8.778-39.297-11.146a929 929 0 0 1-6.271-1.199c-39.092-7.676-79.434-8.343-119.912-1.977l-.04.004-8.665.553-.335-3.736 2.084-2.66h89.156l125.938-.275z"/></g><path fill="#231F20" d="m167.871 359.153 6.059 5.556 37.394-108.751.39.095 114.385 27.616-7.487-5.328-113.992-27.252zm6.455 7.116-7.475-6.856.092-.272 37.1-109.096.391.093 114.55 27.385 11.347 8.076-118.433-28.594z"/><path fill="#939598" d="M447.601 149.244c-1.049-4.957-21.147-4.902-44.888.123-23.74 5.025-42.136 13.119-41.087 18.076l32.144 7.368 35.916-9.012 18.379-12.349z"/><path fill="#D1D3D4" d="M382.998 255.979c2.01 8.353 29.8 7.708 36.052 7.304 17.862-1.155 38.07-9.763 46.736-26.093-6.173-29.164-12.234-58.355-18.53-87.494.43 1.991-18.455 9.302-20.563 10.079a113.3 113.3 0 0 1-24.249 5.995c-4.3.57-39.76 4.076-40.91-.796.002.002 21.462 90.992 21.464 91.005"/><path fill="#E7E8E9" d="M403.105 140.849c-13.74 21.119-31.265 34.083-39.144 28.958-7.879-5.127-3.127-26.402 10.613-47.52s31.264-34.084 39.144-28.958 3.127 26.402-10.613 47.52"/><path fill="#47A564" d="M445.685 170.352c-6.3 4.615-17.518 11.587-33.126 15.156-18.294 4.184-33.496 1.609-41.414-.317l12.52 56.21c7.918 1.926 23.12 4.502 41.415.318 15.608-3.57 26.827-10.542 33.127-15.156z"/><path fill="#231F20" d="M397.126 254.168c19.257.786 38.526-3.85 55.442-13.055-2.033 1.296-4.138 2.479-6.274 3.605-15.035 7.734-32.327 11.223-49.168 9.45"/><path fill="#fff" d="m622.527 239.114-1.067-1.406c5.627-4.272 9.764-9.561 12.299-15.721a37.2 37.2 0 0 0 2.6-10.559l1.756.171a39 39 0 0 1-2.725 11.06c-2.656 6.455-6.983 11.991-12.863 16.455"/><path fill="#231F20" d="m212.82 136.358-11.77 23.331-30.97-15.626 11.771-23.33z"/><path fill="#D44629" d="m320.903 182.261-19.41 38.47c-3.046 6.04-10.413 8.467-16.454 5.419l-83.603-42.18c-6.04-3.047-8.467-10.413-5.419-16.453l19.408-38.471c3.048-6.04 10.415-8.467 16.455-5.419l83.604 42.179c6.04 3.048 8.467 10.415 5.419 16.455"/></svg>