<svg xmlns="http://www.w3.org/2000/svg" width="800" height="800" fill="none"><path fill="#DAF1FA" d="M85.068 491.749c-1.402-52.834 11.22-81.488 40.399-124.918 47.938-71.348 20.28-172.391 92.148-229.822 56.444-45.106 142.786-45.626 197.516 2.556 17.302 15.232 32.363 32.935 50.279 47.438 48.757 39.465 94.963 31.297 151.155 43.226 47.722 10.835 76.541 55.087 79.39 102.14 3.744 61.822-41.797 97.756-63.685 150.699-13.457 32.548-19.856 67.641-32.924 100.348-19.692 49.283-63.736 87.62-114.108 104.104-44.577 14.588-74.859.741-115.963-13.895-26.392-9.646-48.301-5.562-73.046 5.742-16.915 7.194-35.363 13.173-53.788 15.196-53.239 5.492-123.154-10.991-145.776-63.654-15.794-37.409-11.43-77.213-11.227-116.653.039-7.452-.17-14.971-.37-22.507"/><mask id="a" width="613" height="593" x="84" y="104" maskUnits="userSpaceOnUse" style="mask-type:luminance"><path fill="#fff" d="M217.614 138.141c-71.866 57.432-44.209 158.475-92.146 229.822-29.18 43.432-41.803 72.085-40.402 124.918.2 7.536.411 15.056.373 22.508-.204 39.44-4.567 79.244 11.226 116.654 22.623 52.661 92.537 69.145 145.776 63.654 18.425-2.025 36.872-8.002 53.788-15.197 24.746-11.305 46.656-15.389 73.045-5.741 41.106 14.634 71.387 28.482 115.964 13.893 50.372-16.484 94.417-54.821 114.109-104.103 13.069-32.706 19.466-67.801 32.924-100.348 21.888-52.944 67.429-88.877 63.685-150.7-2.85-47.053-31.668-91.304-79.391-102.14-56.192-11.928-102.398-3.76-151.155-43.226-17.917-14.503-32.977-32.206-50.278-47.438-27.665-24.354-63.403-36.266-99.279-36.265-35.096.001-70.327 11.404-98.239 33.709"/></mask><g mask="url(#a)"><path fill="#FAC753" d="M449.548 521.568a548.5 548.5 0 0 0-8.646 92.726c-.147 18.84.69 36.554 2.161 52.988l2.78 32.087 47.471 11.488 104.585-19.239 7.279-34.526c5.114-26.72 8.853-58.3 8.645-93.746a481 481 0 0 0-3.243-52.988"/><path fill="#1B9853" d="m154.528 457.57 21.506 248.228a5.537 5.537 0 0 0 5.516 5.059h141.688a5.536 5.536 0 0 0 5.511-5l24.202-248.287"/></g><path fill="#231F20" d="M460.088 300.494c-2.002-.06-5.435-.287-10.059 0-1.273.078-3.672.23-7.181.377-.928.039-1.988.067-3.334.08-2.504.024-6.858 0-6.858 0-1.447.071-3.467-.083-5.03-1.372-2.894-2.389-2.437-7.215-2.285-9.601.476-7.491-2.097-14.899-2.287-22.403-.274-10.9-1.15-8.141-3.657-35.661-1.932-21.208-2.876-32.008-1.828-41.604 1.732-15.878 5.801-24.631 7.615-28.188 3.508-6.882 7.542-14.795 16.616-19.36 3.074-1.548 10.98-5.526 19.202-3.202 4.738 1.34 7.636 4.222 13.259 3.658 3.105-.311 4.572-1.427 6.857-2.286 7.87-2.96 16.282.563 21.488 2.743 4.767 1.996 13.195 6.592 23.775 21.945 11.844 17.19 16.287 33.634 20.116 48.464 1.028 3.975 3.124 14.69 7.316 36.118 4.361 22.293 3.592 20.414 3.657 20.574 1.135 2.774 3.111 6.803 1.372 9.144-.601.808-1.358 1.031-5.944 2.286-6.936 1.897-7.249 1.946-7.772 1.829-5.306-1.201-5.148-14.668-6.401-14.631-1.219.036 1.585 12.415-4.115 20.116-2.726 3.686-5.924 4.308-39.776 8.231-10.005 1.159-26.12 3-34.746 2.743"/><path fill="#fff" d="M479.29 268.49c.792 2.387.171 5.51.376 9.906.428 9.169-1.1 15.852 1.243 17.221 1.201.703 2.913-.409 5.505-1.676 7.633-3.728 8.153-1.587 21.051-5.944 9.353-3.159 12.66-5.493 15.058-7.924.71-.719 2.534-1.796 3.078-3.811.634-2.357-.658-4.505-1.296-5.638-2.942-5.226-.779-4.543-5.02-13.868-2.116-4.655-3.802-12.884-8.906-19.812"/><path fill="#037D3F" d="M155.442 417.118v-93.642c0-3.599 3.424-6.515 7.647-6.515h182.095c4.289 0 7.766 2.963 7.766 6.617v93.54"/><path fill="#00609A" d="M481.887 315.286c-2.808-1.339-12.62 6.779-32.129 23.068 0 0-8.351 6.972-28.672 22.551-5.555 4.258-6.93 5.102-8.739 5.933-3.764 1.729-6.079 1.873-6.879 3.707-1.184 2.72 2.099 6.56 3.408 8.141 10.443 12.6 6.684 15.74 22.47 34.655 5.26 6.3 8.862 9.769 13.66 9.898 3.428.094 6.068-1.558 7.21-2.293 18.598-11.965 27.719-60.783 27.719-60.783 4.623-24.744 7.859-42.062 1.952-44.877"/><path fill="#231F20" d="M481.138 315.537c-3.419 0-14.103 8.919-31.12 23.127-.084.069-8.591 7.156-28.686 22.562-5.712 4.379-7.013 5.151-8.816 5.98-1.209.556-2.253.943-3.173 1.284-1.887.7-3.027 1.123-3.503 2.216-1.054 2.42 1.955 6.044 3.24 7.591l.108.131c4.702 5.672 6.576 9.508 8.56 13.568 2.446 5 5.216 10.668 13.91 21.085 5.433 6.511 8.82 9.632 13.36 9.755 3.357.081 5.992-1.598 6.98-2.231 18.237-11.733 27.449-60.029 27.54-60.516 4.529-24.243 7.801-41.756 2.176-44.437a1.3 1.3 0 0 0-.576-.115m-35.856 108.112q-.143 0-.287-.004c-4.823-.131-8.484-3.485-13.959-10.045-8.757-10.492-11.55-16.207-14.014-21.248-1.963-4.016-3.818-7.81-8.456-13.408l-.108-.13c-1.498-1.802-4.614-5.554-3.36-8.43.614-1.41 1.946-1.904 3.964-2.652.906-.338 1.934-.719 3.116-1.26 1.744-.803 3.016-1.559 8.661-5.887 20.079-15.395 28.576-22.473 28.66-22.543 20.959-17.498 29.583-24.548 32.563-23.121 6.186 2.948 3.038 19.801-1.728 45.313-.024.126-2.339 12.394-6.9 25.963-6.142 18.271-13.207 30.076-20.998 35.089-1.017.654-3.673 2.363-7.154 2.363"/><path fill="#377FC1" d="M520.211 273.277c2.461-.588 4.953.067 8.146 2.423 8.187 6.04 13.755 16.163 18.635 24.809 5.395 9.562 10.149 19.483 14.652 29.491 9.956 22.136 24.828 58.988 35.036 101.867 5.244 22.028 7.593 38.656 11.679 54.501 2.033 7.887 1.809 16.335 4.542 24.007.482 1.352 1.392 3.758.648 6.489-1.452 5.331-8.11 7.869-11.678 9.083-33.116 11.265-59.044 11.68-59.044 11.68s-35.802.572-71.371-7.138l-14.924-3.244c-7.335-.725-8.435-1.946-8.435-1.946-1.58-1.758-.622-4.44 0-8.435V501.94c0-34.124-.196-51.861 0-68.127.228-18.816 2.372-37.53 4.631-56.19 1.291-10.666 1.68-21.444 3.56-32.036 1.776-9.998 5.261-19.628 9.405-28.87 3.382-7.538 6.01-15.79 12.603-21.232 10.176-8.396 24.253-8.977 34.399-17.546 2.861-2.418 5.174-4.102 7.516-4.662"/><path fill="#231F20" d="M524.988 274.637c-1.201-4.628-3.616-10.229-5.951-15.646-1.793-4.16-3.648-8.463-4.986-12.386a364 364 0 0 0-6.042-16.4l1.506-.596a366 366 0 0 1 6.069 16.474c1.317 3.862 3.159 8.136 4.94 12.268 2.359 5.472 4.797 11.132 6.031 15.88zM480.747 294.225h-1.619c0-1.695.071-2.485.141-3.251.068-.764.135-1.484.135-3.105 0-1.835-.277-4.688-.545-7.447-.271-2.798-.551-5.692-.551-7.605h1.62c0 1.836.276 4.689.544 7.448.271 2.797.551 5.691.551 7.604 0 1.695-.072 2.485-.142 3.251-.069.764-.134 1.484-.134 3.105"/><path fill="#fff" d="M248.866 495.678c14.316-.043 26.317 9.286 29.473 21.858.289 1.15.627 1.226 1.737.886 2.595-.794 5.09-.474 6.924 1.77 1.827 2.235 1.615 4.708.439 7.155-.668 1.389-1.627 2.596-2.647 3.753-2.909 3.307-5.822 6.61-8.694 9.95-.919 1.069-1.584 1.094-2.531-.026-3.189-3.772-6.479-7.458-9.695-11.208-.958-1.117-1.724-2.368-2.164-3.806-1.414-4.627 2.004-8.624 6.768-7.875.643.101 1.424.571 1.859-.051.413-.593-.237-1.258-.504-1.84-4.405-9.62-14.848-14.893-25.157-12.73-10.082 2.114-17.426 11.209-17.598 21.818-.277 17.04 16.456 28.116 31.696 21.275.868-.389 1.299-.311 1.824.403.914 1.236 1.855 2.457 2.86 3.618.722.834.523 1.283-.352 1.82-2.908 1.782-6.112 2.747-9.428 3.186-17.997 2.377-32.37-10.203-34.289-25.691-1.877-15.161 6.705-28.563 21.107-32.937 1.462-.444 2.961-.816 4.469-1.047 1.449-.223 2.933-.219 3.903-.281"/><path fill="#085A2E" d="M162.339 461.231c27.885-4.384 66.316-6.796 110.183 1.818 13.756 2.701 27.158 4.581 41.906 11.358 15.487 7.118 26.871 22.091 33.746 28.402l4.777-46.372-115.116.25h-81.617l-1.69 2.158.258 2.869z"/><path fill="#FDFAD6" d="m295.302 357.23-3.368 3.07-24.485-23.493 3.209-3.368z"/><path fill="#377FC1" d="m291.934 360.3-4.878 2.415-37.67 38.225-20.654-19.562 36.883-39.891 1.833-4.68"/><path fill="#FAC753" d="m249.385 400.941-12.404.294-7.953-7.436-.296-12.422z"/><path fill="#FDFAD6" d="m236.842 401.679-4.661 5.212-8.125-7.716 4.833-4.933z"/><path fill="#fff" d="M407.003 376.885c-4.787 2.032-10.206 3.943-19.134 5.69-14.392 2.817-25.482 1.809-35.556.921l-.806 43.945c14.861.24 58.198.647 65.248-.692a128 128 0 0 0 20.7-5.769"/><path fill="#037D3F" d="M153.94 457.266h200.513c6.556 0 11.871-5.028 11.871-11.229v-16.86c0-6.202-5.315-11.23-11.871-11.23H153.94c-6.556 0-11.871 5.028-11.871 11.23v16.86c0 6.201 5.315 11.229 11.871 11.229"/><path fill="#231F20" d="M153.94 418.757c-6.099 0-11.062 4.675-11.062 10.42v16.86c0 5.745 4.963 10.42 11.062 10.42h200.513c6.099 0 11.061-4.675 11.061-10.42v-16.86c0-5.745-4.962-10.42-11.061-10.42zm200.513 39.319H153.94c-6.992 0-12.68-5.402-12.68-12.039v-16.86c0-6.639 5.688-12.039 12.68-12.039h200.513c6.992 0 12.681 5.4 12.681 12.039v16.86c0 6.637-5.689 12.039-12.681 12.039M477.138 429.251c-23.504-4.989-35.301-7.493-50.218-13.144a386 386 0 0 1-4.215-1.633c-5.496-2.155-11.179-4.383-19.787-6.565a158 158 0 0 0-16.026-3.191l.117-.801a159 159 0 0 1 16.108 3.208c8.657 2.194 14.365 4.432 19.884 6.596 1.391.545 2.777 1.089 4.204 1.629 14.861 5.629 26.637 8.129 50.101 13.109z"/><path fill="#fff" d="M262.274 316.96c-1.941-3.817-8.356-6.061-11.886-7.78-3.816-1.857-4.135-1.186-6.711-2.7-8.347-4.902-20.195.267-23.775 1.83-2.408 1.05-8.072 3.004-10.51 8.65h13.564c3.221-.357 8.141-3.198 13.634-3.165 6.071.037 6.379.516 6.4.687.111.842-5.706 2.56-10.972 4.114-4.581 1.352-6.101 1.608-7.772 3.2-2.321 2.212-3.878 6-2.744 7.315 1.124 1.301 10.814-1.167 21.266-4.996 3.908-1.431 10.921-6.477 12.953-7.155zM422.293 190.615c-.689 15.632 1.157 28.353 3.048 37.185 2.425 11.332 4.407 20.121 11.277 29.26 3.1 4.124 8.479 11.097 18.288 15.24 1.63.689 17.104 6.932 33.223-.609 0 0 12.564-5.879 19.507-18.898 4.404-8.257 6.605-12.385 7.01-16.458.156-1.563.328-4.967 2.744-7.622 1.212-1.33 3.064-2.109 4.567-3.044 3.683-2.289 5.503-6.829 5.256-11.07-.263-4.544-3.077-9.171-7.164-11.255-4.625-2.36-10.109-.543-14.9-2.389-1.792-.692-3.521-1.65-5.152-2.656-5.537-3.42-10.575-7.728-15.715-11.696q-2.34-1.807-4.688-3.608c-13.637-10.466-14.041-10.467-15.849-12.802-3.172-4.098-5.273-8.418-8.229-8.229-1.878.12-2.552 2.003-5.182 5.487-5.29 7.008-11.086 10.792-14.63 13.105-3.219 2.101-6.076 3.48-9.448 4.268-1.635.381-3.02.537-3.963.609"/><path fill="#231F20" d="M425.951 204.076a42 42 0 0 1 5.465-1.436 42 42 0 0 1 9.475-.718"/><path fill="#231F20" d="m426.208 204.844-.516-1.536a43 43 0 0 1 5.572-1.463 42.8 42.8 0 0 1 9.656-.732l-.06 1.619a41.051 41.051 0 0 0-14.652 2.112M478.762 206.82c-3.827-1.88-7.814-3.076-11.852-3.556a34.8 34.8 0 0 0-8.194 0l-.192-1.608a36.3 36.3 0 0 1 8.578 0c4.218.502 8.382 1.75 12.373 3.71zM456.559 241.612q-.304 0-.61-.011c-2.542-.087-5.426-.185-7.001-2.128-1.469-1.813-.977-4.139-.163-7.992a39.6 39.6 0 0 1 2.8-8.403l1.47.68a38 38 0 0 0-2.686 8.058c-.774 3.662-1.105 5.476-.164 6.637 1.111 1.369 3.602 1.455 5.8 1.529 1.456.05 2.922-.096 4.359-.436l.372 1.578a18.2 18.2 0 0 1-4.177.488M453.302 259.432h-.069l.004-1.619h.065c3.843 0 7.642-.917 10.99-2.653 6.157-3.192 9.293-8.3 10.614-11.06l1.462.699c-1.41 2.944-4.755 8.389-11.331 11.798-3.577 1.855-7.633 2.835-11.735 2.835M439.061 218.732a4.687 4.687 0 1 1-9.374 0 4.687 4.687 0 0 1 9.374 0M471.523 215.989a4.686 4.686 0 1 1-9.372 0 4.686 4.686 0 1 1 9.372 0M466.636 279.802l-.296-1.592c7.295-1.357 17.9-4.854 27.012-13.804a49.8 49.8 0 0 0 9.299-12.597l1.436.748a51.5 51.5 0 0 1-9.599 13.005c-9.404 9.236-20.336 12.842-27.852 14.24"/><path fill="#A7A9AC" d="M224.46 265.09h100.218v-34.778H224.46zm101.029.809H223.65v-36.396h101.839z"/><path fill="#A7A9AC" d="M283.405 229.5h100.219v-34.777H283.405zm101.028.81H282.594v-36.396h101.839zM614.236 339.599h100.218v-34.777H614.236zm101.029.811H613.426v-36.396h101.839z"/><path fill="#231F20" d="m492.509 684.76-4.989-42.714.004-.068 3.339-65.836 1.618.082-3.337 65.768 4.973 42.58zM500.559 258.127a36.7 36.7 0 0 1-4.42 10.668c-3.118 5.071-6.558 7.864-9.448 10.211-1.468 1.192-5.585 4.495-6.858 3.505-.382-.297-.458-1.213-.61-3.048-.11-1.34-.166-2.009 0-2.59.536-1.87 2.932-2.71 3.811-3.048 2.983-1.155 5.696-3.666 11.125-8.687 2.203-2.039 5.023-5.236 7.467-10.211"/><path fill="#fff" d="M407.976 405.746c-2.718-1.392-5.296-3.016-7.646-4.995-5.998-5.052-8.522-12.706-12.213-19.409a65 65 0 0 0-3.935-6.26c-2.033-2.867-3.088-4.329-4.905-5.737-2.421-1.876-5.339-3.099-8.008-4.568-3.073-1.691-6.179-3.359-9.057-5.372-2.515-1.759-4.419-4.611-7.722-4.975-1.193-.132-2.393.101-3.585.255-2.732.352-5.928.473-8.611-.274-2.221-.618-4.129-2.296-6.345-3.114-1.869-.69-3.799-1.207-5.664-1.91-1.04-.392-2.773-2.216-3.937-1.884-2.151.614-1.244 5.32-.599 6.686.955 2.02 2.777 3.572 4.863 4.372.785.301 1.624.509 2.309.997-2.779.772-5.328 1.191-7.615 3.116-2.966 2.496-5.232 5.979-7.878 8.82-.214.229-.434.469-.53.768-.113.352-.037.739.094 1.084.677 1.783 2.738 2.737 4.645 2.675 1.107-.036 2.285-.335 3.273.165.575.291.992.812 1.475 1.239 2.345 2.074 4.992 1.438 7.36.012.168-.1.34-.203.532-.238.619-.109 1.099.486 1.583.887.72.597 1.688.828 2.624.821 2.373-.016 4.818-.652 6.698-2.14 1.172-.925 2.46-3.28 3.976-3.581 1.899-.375 3.4 2.551 4.207 3.797 1.587 2.45 3.049 5.372 5.132 7.428 2.14 2.111 3.487 3.002 3.349 3.218-.177.281-2.454-1.268-6.548-2.587-2.394-.771-4.864-1.421-7.276-2.179-.386-.12-.789-.242-1.189-.184-.896.134-1.417 1.11-1.552 2.006-.443 2.924 1.677 5.661 4.125 7.318s5.316 2.647 7.668 4.439c2.26 1.723 3.92 4.092 5.632 6.36 4.299 5.696 8.116 13.475 15.075 15.164 21.728 5.277 41.945 27.46 63.987 39.369 20.13 10.878 40.782 23.663 63.878 26.692 11.28 1.479 23.054.412 33.42-4.274 8.222-3.718-6.162-9.554-9.028-11.239-8.12-4.78-13.325-8.919-21.944-15.772-6.997-5.565-12.918-12.348-19.868-17.972-15.38-12.443-38.664-13.829-56.797-20.403-7.66-2.777-16.071-4.84-23.453-8.621"/><path fill="#231F20" d="M334.283 377.736a4 4 0 0 1-.763-2.168c-.064-1.278.489-2.225.672-2.537.435-.74.909-1.113 1.628-1.68l.293-.231a37 37 0 0 0 1.776-1.537c.404-.363.806-.725 1.218-1.076 2.778-2.364 3.009-2.549 3.529-2.825.849-.452 1.703-.688 3.252-1.115a55 55 0 0 1 4.531-1.039c3.081-.582 4.624-.874 5.868-.986 3.197-.291 5.61.022 8.165.353 2.268.295 4.537.745 6.751 1.341l-.211.782a51 51 0 0 0-6.641-1.319c-2.511-.325-4.88-.632-7.991-.351-1.204.11-2.735.399-5.785.975-1.198.227-2.66.524-4.472 1.025-1.606.443-2.348.655-3.087 1.048-.424.226-.585.346-3.384 2.727-.407.345-.803.704-1.2 1.061a40 40 0 0 1-1.815 1.571l-.296.232c-.692.545-1.074.845-1.43 1.453-.168.288-.615 1.05-.563 2.087.04.796.353 1.381.609 1.733zM369.163 377.284a17.7 17.7 0 0 1-4.11-1.265c-.603-.271-1.764-.908-3.871-2.065l-1.073-.591c-.842-.463-.878-.481-.974-.511-1.058-.318-1.844-.146-3.142.14-.574.126-1.224.268-2.024.396a26 26 0 0 1-3.864.314l-.004-.811a25 25 0 0 0 3.741-.303 33 33 0 0 0 1.977-.388c1.331-.292 2.291-.502 3.55-.122.182.053.2.064 1.13.576l1.072.589c2.091 1.148 3.24 1.78 3.814 2.037 1.217.55 2.538.955 3.924 1.207zM325.454 376.35l-.74-.329c.027-.059.648-1.451 1.103-2.324.408-.783.718-1.212 1.641-2.486l.387-.534a123 123 0 0 0 1.724-2.426c.168-.244.22-.318.449-.61 1.392-1.782 2.492-3.19 4.339-4.45.18-.122.226-.148.548-.325.282-.156.79-.435 1.84-1.028 0 0 1.798-1.02 3.757-2.168 1.965-1.152 3.157-1.899 4.027-2.444 1.248-.781 1.817-1.137 2.985-1.643 1.26-.545 2.572-.98 3.899-1.293l.186.788a22.5 22.5 0 0 0-3.764 1.248c-1.112.481-1.665.827-2.876 1.587-.874.548-2.072 1.297-4.046 2.456-1.967 1.15-3.77 2.173-3.77 2.173-1.054.597-1.565.877-1.849 1.033-.281.155-.323.178-.481.286-1.742 1.189-2.808 2.552-4.158 4.277-.213.273-.262.345-.42.573-.205.299-.592.86-1.734 2.44l-.387.535c-.921 1.271-1.2 1.656-1.58 2.387-.443.849-1.073 2.264-1.08 2.277M332.339 360.198l-.375-.717a30 30 0 0 1 4-1.737c.955-.334 1.676-.53 2.375-.72.837-.228 1.629-.444 2.688-.874a21 21 0 0 0 3.292-1.684l.429.687a22 22 0 0 1-3.418 1.749c-1.103.446-1.918.668-2.779.903-.684.187-1.392.38-2.32.703a30 30 0 0 0-3.892 1.69M361.339 400.866a13 13 0 0 1-.832-3.54c-.232-2.602.336-5.464.516-6.28l.1-.434c.217-.944.405-1.76.193-2.813a5.3 5.3 0 0 0-.653-1.676l.695-.416c.364.608.617 1.259.753 1.932.245 1.225.029 2.163-.2 3.155l-.097.426c-.174.787-.723 3.547-.502 6.035a12.4 12.4 0 0 0 .783 3.321z"/><path fill="#377FC1" d="M490.921 333.893c1.269-6.515 2.524-12.595 7.137-18.816 1.556-2.099 8.889-11.99 21.411-13.626 13.466-1.76 23.677 7.234 27.25 10.382 12.22 10.761 14.994 25.16 17.519 38.281 3.38 17.552 1.801 31.175 0 46.716 0 0-2.48 21.407-9.732 44.769-4.071 13.114-5.204 11.871-7.137 20.763-1.296 5.961-1.544 10.007-4.542 11.679-3.16 1.762-7.486-.166-12.977-3.244-13.477-7.558-20.512-14.495-36.335-27.252-4.181-3.372-8.181-6.964-12.328-10.382-6.684-5.509-7.608-6.078-8.433-7.785-2.98-6.157 2.217-12.88 7.136-23.359 1.288-2.744 8.901-19.27 10.381-37.632 1.092-13.526-2.077-16.504.65-30.494"/><path fill="#231F20" d="M522.98 302.032c-1.108 0-2.244.071-3.406.223-7.854 1.025-15.264 5.751-20.864 13.303-4.6 6.204-5.818 12.449-6.994 18.49-1.533 7.867-1.186 12.083-.785 16.966.307 3.716.623 7.558.148 13.438-1.412 17.518-8.36 33.447-10.455 37.912-1.086 2.312-2.162 4.398-3.201 6.415-3.536 6.852-6.091 11.804-3.94 16.247.62 1.282 1.368 1.894 5.517 5.294.778.638 1.672 1.37 2.703 2.22a383 383 0 0 1 5.465 4.62c2.231 1.91 4.536 3.884 6.856 5.755 3.738 3.013 7.032 5.743 9.94 8.149 9.664 8.002 16.05 13.288 26.283 19.027 5.685 3.187 9.501 4.739 12.185 3.243 2.156-1.203 2.71-3.998 3.548-8.227.181-.915.374-1.888.597-2.917 1.034-4.75 1.849-6.67 2.977-9.324 1.008-2.374 2.261-5.327 4.179-11.507 7.147-23.024 9.677-44.409 9.7-44.623 1.807-15.581 3.367-29.04.01-46.469-2.459-12.771-5.245-27.247-17.259-37.827-3.365-2.965-11.814-10.408-23.204-10.408m17.124 173.486c-3.156 0-6.841-1.88-10.649-4.015-10.361-5.809-16.791-11.133-26.524-19.192a943 943 0 0 0-9.923-8.135c-2.34-1.886-4.654-3.868-6.893-5.785a379 379 0 0 0-5.441-4.601c-1.031-.85-1.924-1.582-2.7-2.218-4.383-3.59-5.172-4.237-5.95-5.841-2.501-5.171.35-10.697 3.959-17.695 1.033-2.004 2.103-4.074 3.175-6.36 2.066-4.402 8.916-20.108 10.306-37.353.464-5.748.154-9.525-.146-13.176-.395-4.795-.768-9.323.809-17.409 1.211-6.218 2.464-12.647 7.28-19.143 5.867-7.911 13.664-12.863 21.957-13.945 13.835-1.814 24.415 7.513 27.891 10.576 12.428 10.945 15.271 25.709 17.779 38.734 3.402 17.675 1.83 31.247.009 46.963-.026.215-2.572 21.749-9.764 44.916-1.941 6.257-3.213 9.252-4.235 11.66-1.093 2.573-1.884 4.435-2.884 9.035-.221 1.02-.412 1.982-.592 2.888-.892 4.505-1.537 7.758-4.346 9.326-.962.536-2.007.77-3.118.77M445.084 418.347c-4.883-.82-30.707-8.275-40.691-14.882-1.928-1.274-4.836-3.2-7.717-6.558-1.027-1.198-1.769-2.24-4.707-6.835-.745-1.165-1.718-3.172-2.748-5.297-1.136-2.343-2.31-4.767-3.354-6.447l.688-.428c1.065 1.717 2.249 4.16 3.394 6.521 1.02 2.104 1.983 4.09 2.702 5.214 2.912 4.554 3.641 5.581 4.64 6.745 2.806 3.272 5.66 5.16 7.546 6.409 9.9 6.551 35.534 13.944 40.382 14.759zM401.41 429.172a46.7 46.7 0 0 0-8.612-5.438c-2.087-1.011-3.47-1.482-5.22-2.079-1.678-.572-3.766-1.283-7.107-2.713-5.527-2.366-7.381-3.627-8.563-4.638-1.626-1.392-2.392-2.446-3.917-4.549-.403-.556-.86-1.187-1.401-1.919-5.291-7.134-7.946-10.714-10.167-12.005-1.253-.728-1.772-1.031-1.876-1.064-.169.021-.44.044-2.985-1.08l.326-.74c2.14.944 2.55 1.049 2.651 1.02.252-.016.255-.02 2.291 1.164 2.365 1.373 5.054 5 10.409 12.224.544.733 1.003 1.367 1.408 1.925 1.487 2.051 2.235 3.079 3.788 4.41 1.132.968 2.928 2.184 8.353 4.506a87 87 0 0 0 7.051 2.692c1.777.607 3.181 1.084 5.312 2.116 3.041 1.474 5.989 3.336 8.761 5.534z"/></svg>