<svg xmlns="http://www.w3.org/2000/svg" width="1080" height="1080" fill="none"><path fill="#059BDC" d="M78.02 671.05c-2.06-77.55 16.47-119.61 59.3-183.36 70.37-104.73 29.77-253.05 135.26-337.35 82.85-66.21 209.59-66.97 289.92 3.75 25.4 22.36 47.5 48.34 73.8 69.63 71.57 57.93 139.39 45.94 221.87 63.45 70.05 15.9 112.35 80.86 116.53 149.93 5.5 90.74-61.35 143.49-93.48 221.2-19.75 47.78-29.14 99.29-48.33 147.3-28.89 72.35-93.54 128.62-167.48 152.82-65.43 21.41-109.88 1.09-170.22-20.4-38.74-14.16-70.9-8.17-107.22 8.43-24.83 10.56-51.91 19.34-78.95 22.31-78.15 8.06-180.77-16.13-213.98-93.43-23.18-54.91-16.78-113.34-16.48-171.23.06-10.95-.24-21.98-.54-33.05" opacity=".1"/><mask id="a" width="899" height="870" x="77" y="102" maskUnits="userSpaceOnUse" style="mask-type:luminance"><path fill="#fff" d="M78.02 672.72c-2.06-77.55 16.47-119.61 59.3-183.36 70.37-104.73 29.77-253.04 135.26-337.35 82.85-66.21 209.59-66.97 289.92 3.75 25.4 22.36 47.5 48.34 73.8 69.63 71.57 57.93 139.39 45.94 221.87 63.45 70.05 15.9 112.35 80.86 116.53 149.93 5.5 90.74-61.35 143.49-93.48 221.2-19.75 47.78-29.14 99.29-48.33 147.3-28.89 72.34-93.54 128.61-167.48 152.81-65.43 21.41-109.88 1.09-170.22-20.4-38.74-14.16-70.9-8.17-107.22 8.43-24.83 10.56-51.91 19.34-78.95 22.31-78.15 8.06-180.77-16.13-213.98-93.43-23.18-54.91-16.78-113.34-16.48-171.23.06-10.94-.24-21.98-.54-33.04"/></mask><g mask="url(#a)"><path fill="#EAB716" d="M613.03 714.82c-7.12 39.63-12.3 85.37-12.69 136.11-.22 27.65 1.01 53.65 3.17 77.78l4.08 47.1 69.68 16.86 153.52-28.24 10.68-50.68c7.51-39.22 13-85.58 12.69-137.61-.16-27.9-1.97-53.92-4.76-77.78"/><path fill="#8DC63F" d="m179.98 620.88 31.57 364.36a8.13 8.13 0 0 0 8.1 7.43h207.98c4.18 0 7.68-3.18 8.09-7.34l35.52-364.45"/></g><path fill="#8DC63F" d="M181.32 561.51V424.05c0-5.28 5.03-9.56 11.22-9.56h267.29c6.3 0 11.4 4.35 11.4 9.71v137.3"/><path fill="#fff" d="M322.45 676.82c21.01-.06 38.63 13.63 43.26 32.09.42 1.69.92 1.8 2.55 1.3 3.81-1.17 7.47-.69 10.16 2.6 2.68 3.28 2.37 6.91.64 10.5-.98 2.04-2.39 3.81-3.88 5.51-4.27 4.85-8.55 9.7-12.76 14.6-1.35 1.57-2.33 1.61-3.72-.04-4.68-5.54-9.51-10.95-14.23-16.45-1.41-1.64-2.53-3.48-3.18-5.59-2.08-6.79 2.94-12.66 9.93-11.56.94.15 2.09.84 2.73-.07.61-.87-.35-1.85-.74-2.7-6.47-14.12-21.79-21.86-36.93-18.69-14.8 3.1-25.58 16.45-25.83 32.03-.41 25.01 24.16 41.27 46.53 31.23 1.27-.57 1.9-.46 2.68.59 1.34 1.81 2.72 3.61 4.2 5.31 1.06 1.22.77 1.88-.52 2.67-4.27 2.62-8.97 4.03-13.84 4.68-26.42 3.49-47.52-14.97-50.33-37.71-2.76-22.26 9.84-41.93 30.98-48.35 2.15-.65 4.35-1.2 6.56-1.54 2.14-.32 4.32-.32 5.74-.41"/><path fill="#297F00" d="M191.45 626.26c40.93-6.44 97.34-9.97 161.73 2.67 20.19 3.96 39.87 6.72 61.51 16.67 22.73 10.45 39.44 32.43 49.53 41.69l7.01-68.07-168.97.37h-119.8l-2.48 3.17.38 4.21z"/><path fill="#8DC63F" stroke="#297F00" stroke-miterlimit="10" stroke-width="2" d="M179.12 620.44h294.32c9.62 0 17.42-7.38 17.42-16.48v-24.75c0-9.1-7.8-16.48-17.42-16.48H179.12c-9.62 0-17.42 7.38-17.42 16.48v24.75c-.01 9.1 7.79 16.48 17.42 16.48Z"/><path stroke="#222" stroke-miterlimit="10" stroke-width="2" d="M699.94 286.71c3.04 7.67 6.02 15.72 8.89 24.13 4.52 13.26 12.94 29.13 16.08 41.23M656.43 349.69c0 5.5 1.61 16.59 1.61 22.09 0 4.87-.4 4.46-.4 9.33"/><path fill="#FFFACF" d="m422.161 440.956-5.814 5.297-42.214-40.51 5.532-5.803z"/><path fill="#F26D04" d="m416.347 446.253-8.41 4.158-64.942 65.905-35.613-33.733 63.591-68.771 3.16-8.069"/><path fill="#EAB716" d="m342.995 516.316-21.389.505-13.718-12.814-.506-21.424z"/><path fill="#FFFACF" d="m321.372 517.585-8.046 8.985-14.001-13.296 8.328-8.504z"/><path stroke="#222" stroke-miterlimit="10" d="M653.65 578.74c-34.27-7.27-51.78-10.99-73.63-19.27-10.47-3.97-19.45-8.04-35.29-12.05-9.87-2.5-18.15-3.9-23.59-4.7"/><path stroke="#222" stroke-miterlimit="10" stroke-width="2" d="M637.89 358.78c8.04-1.5 25.34-5.92 40.27-20.58 6.68-6.56 11.04-13.36 13.87-18.79"/><path fill="#222" d="M687.9 328.13c-1.7 7.04-4.43 12.32-6.49 15.66-4.58 7.44-9.63 11.54-13.87 14.99-2.15 1.75-8.2 6.6-10.07 5.15-.56-.44-.67-1.78-.89-4.47-.16-1.97-.24-2.95 0-3.8.79-2.74 4.3-3.98 5.59-4.47 4.38-1.69 8.36-5.38 16.33-12.75 3.23-2.99 7.37-7.68 10.96-14.99"/><path fill="#222" d="M628.5 390.32c-2.94-.09-7.98-.42-14.76 0-1.87.12-5.39.34-10.54.55-1.36.06-2.92.1-4.89.12-3.68.04-10.07 0-10.07 0-2.12.1-5.09-.12-7.38-2.01-4.25-3.51-3.58-10.59-3.36-14.09.7-11-3.08-21.87-3.36-32.88-.4-16-1.69-11.95-5.37-52.35-2.84-31.13-4.22-46.98-2.68-61.07 2.54-23.3 8.52-36.15 11.18-41.38 5.15-10.1 11.07-21.72 24.39-28.42 4.51-2.27 16.12-8.11 28.19-4.7 6.95 1.97 11.21 6.2 19.46 5.37 4.56-.46 6.71-2.09 10.07-3.36 11.55-4.34 23.9.83 31.54 4.03 7 2.93 19.37 9.67 34.9 32.21 17.39 25.23 23.91 49.37 29.53 71.14 1.51 5.84 4.58 21.56 10.74 53.02 6.4 32.72 5.27 29.97 5.37 30.2 1.66 4.07 4.57 9.99 2.01 13.42-.88 1.19-1.99 1.51-8.72 3.36-10.18 2.79-10.64 2.86-11.41 2.68-7.79-1.76-7.56-21.53-9.4-21.48-1.79.05 2.33 18.22-6.04 29.53-4 5.41-8.7 6.32-58.39 12.08-14.7 1.7-38.35 4.41-51.01 4.03"/><path fill="#fff" d="M656.68 343.34c1.16 3.5.25 8.09.55 14.54.63 13.46-1.61 23.27 1.83 25.28 1.76 1.03 4.28-.6 8.08-2.46 11.2-5.47 11.97-2.33 30.9-8.72 13.73-4.64 18.58-8.06 22.1-11.63 1.04-1.05 3.72-2.64 4.52-5.59.93-3.46-.96-6.61-1.9-8.28-4.32-7.67-1.14-6.67-7.37-20.36-3.11-6.83-5.58-18.91-13.07-29.08"/><path fill="#222" stroke="#222" stroke-miterlimit="10" d="M660.5 412.03c-4.12-1.96-18.52 9.95-47.16 33.86 0 0-12.26 10.23-42.09 33.1-8.15 6.25-10.17 7.49-12.83 8.71-5.53 2.54-8.92 2.75-10.1 5.44-1.74 3.99 3.08 9.63 5 11.95 15.33 18.5 9.81 23.11 32.98 50.87 7.72 9.25 13.01 14.34 20.05 14.53 5.03.14 8.91-2.29 10.58-3.37 27.3-17.56 40.69-89.22 40.69-89.22 6.8-36.31 11.55-61.74 2.88-65.87Z"/><path fill="#0077AB" d="M716.75 350.37c3.61-.86 7.27.1 11.96 3.56 12.02 8.87 20.19 23.72 27.35 36.42 7.92 14.03 14.9 28.6 21.51 43.29 14.61 32.49 36.45 86.59 51.43 149.53 7.7 32.33 11.15 56.74 17.14 80 2.98 11.58 2.66 23.98 6.67 35.24.71 1.98 2.04 5.52.95 9.52-2.13 7.82-11.91 11.55-17.14 13.33-48.61 16.53-86.67 17.14-86.67 17.14s-52.55.84-104.76-10.48c-1.09-.24-21.9-4.76-21.91-4.76-10.77-1.06-12.38-2.86-12.38-2.86-2.32-2.58-.91-6.52 0-12.38v-21.91c0-50.09-.29-76.13 0-100 .33-27.62 3.48-55.09 6.8-82.48 1.89-15.66 2.47-31.48 5.23-47.02 2.61-14.67 7.72-28.81 13.8-42.38 4.96-11.07 8.82-23.18 18.5-31.17 14.94-12.33 35.6-13.18 50.49-25.76 4.2-3.54 7.59-6.01 11.03-6.83"/><path fill="#fff" d="M550.58 502.45c-7.03 2.98-14.98 5.79-28.09 8.35-21.13 4.14-36.47 1.04-51.26-.27v50.97c21.81.35 83.31 16.1 93.65 14.14 12.66-2.41 23.01-5.73 30.39-8.47M338.14 414.49c-2.85-5.6-12.27-8.9-17.45-11.42-5.6-2.73-6.07-1.74-9.85-3.96-12.25-7.2-29.64.39-34.9 2.68-3.54 1.54-11.85 4.41-15.43 12.7h19.91c4.73-.52 11.95-4.69 20.01-4.65 8.91.05 9.36.76 9.4 1.01.16 1.24-8.38 3.76-16.11 6.04-6.72 1.98-8.96 2.36-11.41 4.7-3.41 3.25-5.69 8.81-4.03 10.74 1.65 1.91 15.87-1.71 31.21-7.33 5.74-2.1 16.03-9.51 19.01-10.5h9.64zM573.02 229.03c-1.01 22.95 1.7 41.62 4.47 54.58 3.56 16.63 6.47 29.53 16.55 42.95 4.55 6.05 12.45 16.29 26.84 22.37 2.39 1.01 25.11 10.17 48.77-.89 0 0 18.44-8.63 28.63-27.74 6.46-12.12 9.69-18.18 10.29-24.16.23-2.29.48-7.29 4.03-11.19 1.78-1.95 4.5-3.1 6.7-4.47 5.4-3.36 8.08-10.03 7.72-16.25-.39-6.67-4.52-13.46-10.52-16.52-6.79-3.46-14.84-.8-21.87-3.51-2.63-1.01-5.17-2.42-7.56-3.9-8.13-5.02-15.52-11.34-23.07-17.17-2.29-1.77-4.58-3.53-6.88-5.3-20.02-15.36-20.61-15.36-23.26-18.79-4.66-6.02-7.74-12.36-12.08-12.08-2.76.18-3.75 2.94-7.61 8.05-7.77 10.29-16.27 15.84-21.48 19.24-4.72 3.08-8.92 5.11-13.87 6.26-2.4.56-4.43.79-5.82.89"/><path fill="#222" d="M578.39 248.79a61.156 61.156 0 0 1 21.93-3.16"/><path stroke="#222" stroke-miterlimit="10" stroke-width="2" d="M578.39 248.79a61.156 61.156 0 0 1 21.93-3.16M626.34 246.42c3.51-.42 7.67-.55 12.31 0 7.27.87 13.3 3.13 17.78 5.33M617.1 277.18c-2.17 4.7-3.35 8.88-4.03 12.08-1.17 5.55-1.76 8.56 0 10.74 1.97 2.43 5.86 2.56 9.4 2.68 2.79.1 5.11-.29 6.71-.67M618.44 328.86c3.45.01 9.88-.45 16.78-4.03 10.08-5.23 14.65-13.73 16.11-16.78"/><path fill="#222" d="M590.75 277.19a6.88 6.88 0 1 0 0-13.76 6.88 6.88 0 1 0 0 13.76M638.4 273.16a6.88 6.88 0 1 0 0-13.76 6.88 6.88 0 1 0 0 13.76"/><path stroke="#222" stroke-miterlimit="10" stroke-width="2" d="m674.86 794.99-4.9 96.64 7.31 62.6"/><path fill="#fff" d="M552 544.81c-3.99-2.04-7.77-4.43-11.22-7.33-8.81-7.41-12.51-18.65-17.93-28.49-.74-1.34-2.73-4.89-5.78-9.19-2.99-4.21-4.53-6.36-7.2-8.42-3.55-2.75-7.84-4.55-11.76-6.7-4.51-2.48-9.07-4.93-13.29-7.89-3.69-2.58-6.49-6.77-11.33-7.3-1.75-.19-3.51.15-5.26.37-4.01.52-8.7.69-12.64-.4-3.26-.91-6.06-3.37-9.31-4.57-2.74-1.01-5.58-1.77-8.31-2.8-1.53-.58-4.07-3.25-5.78-2.77-3.16.9-1.83 7.81-.88 9.81 1.4 2.96 4.08 5.24 7.14 6.42 1.15.44 2.38.75 3.39 1.46-4.08 1.13-7.82 1.75-11.18 4.57-4.35 3.66-7.68 8.78-11.56 12.95-.31.34-.64.69-.78 1.13-.17.52-.05 1.08.14 1.59.99 2.62 4.02 4.02 6.82 3.93 1.62-.05 3.35-.49 4.8.24.84.43 1.46 1.19 2.17 1.82 3.44 3.04 7.33 2.11 10.8.02.25-.15.5-.3.78-.35.91-.16 1.61.71 2.32 1.3 1.06.88 2.48 1.22 3.85 1.21 3.48-.02 7.07-.96 9.83-3.14 1.72-1.36 3.61-4.82 5.84-5.26 2.79-.55 4.99 3.74 6.18 5.57 2.33 3.6 4.47 7.88 7.53 10.9 3.14 3.1 5.12 4.41 4.92 4.72-.26.41-3.6-1.86-9.61-3.8-3.52-1.13-7.14-2.09-10.68-3.2-.57-.18-1.16-.36-1.74-.27-1.32.19-2.08 1.63-2.28 2.94-.65 4.29 2.46 8.31 6.06 10.74 3.59 2.43 7.8 3.89 11.26 6.52 3.32 2.53 5.75 6.01 8.27 9.33 6.31 8.36 11.91 19.78 22.13 22.26 31.89 7.75 61.57 40.31 93.92 57.79 29.55 15.97 59.86 34.73 93.77 39.18 16.56 2.17 33.84.61 49.06-6.27 12.07-5.46-9.05-14.02-13.25-16.5-11.92-7.01-19.56-13.09-32.21-23.15-10.27-8.17-18.96-18.13-29.16-26.38-22.57-18.26-56.75-20.3-83.37-29.95-11.28-4.06-23.63-7.09-34.47-12.64"/><path stroke="#222" stroke-miterlimit="10" d="M497.87 484.46c-3.92-1.05-7.3-1.62-9.83-1.95-3.76-.49-7.23-.94-11.86-.52-1.8.16-4.05.59-8.56 1.44-1.49.28-3.74.72-6.6 1.51-2.31.64-3.49.97-4.65 1.59-.7.37-.99.6-5.07 4.08-1.48 1.26-2.89 2.64-4.41 3.85-1.3 1.03-2.02 1.52-2.68 2.64-.28.48-.99 1.72-.91 3.39.07 1.46.71 2.45 1.01 2.86M495.14 502.45c-2.59-.47-4.56-1.21-5.9-1.81-.85-.38-2.46-1.26-5.64-3.01-2.86-1.57-2.85-1.58-3.12-1.66-2.43-.73-4 .16-7.85.77-1.31.21-3.22.44-5.58.45M469.12 469.86c-1.31.31-3.3.86-5.62 1.86-2.86 1.24-3.26 1.88-10.23 5.97-2.88 1.69-5.52 3.19-5.52 3.19-3.19 1.81-2.98 1.63-3.46 1.96-2.63 1.8-4.24 3.85-6.24 6.4-.74.94-.19.3-3.18 4.44-1.83 2.53-2.28 3.11-2.93 4.36-.67 1.28-1.6 3.38-1.6 3.38M458.88 470.05c-1.07.67-2.75 1.64-4.93 2.52-2.85 1.15-4.34 1.26-7.46 2.35-1.39.49-3.4 1.27-5.79 2.51M484.1 537.44c-.8-2.09-1.08-3.85-1.19-5.04-.35-3.92.56-8.21.75-9.04.37-1.7.82-3.1.43-5.01a8.2 8.2 0 0 0-1.03-2.65"/><path fill="#0077AB" stroke="#222" stroke-miterlimit="10" stroke-width="2" d="M673.76 439.34c1.86-9.56 3.7-18.49 10.48-27.62 2.28-3.08 13.05-17.6 31.43-20 19.77-2.58 34.75 10.62 40 15.24 17.94 15.8 22.01 36.93 25.71 56.19 4.96 25.76 2.64 45.76 0 68.57 0 0-3.64 31.42-14.29 65.71-5.97 19.25-7.64 17.42-10.48 30.48-1.9 8.75-2.27 14.69-6.67 17.14-4.64 2.59-10.99-.24-19.05-4.76-19.78-11.09-30.11-21.28-53.33-40-6.14-4.95-12.01-10.22-18.1-15.24-9.81-8.09-11.17-8.92-12.38-11.43-4.37-9.04 3.26-18.91 10.48-34.29 1.89-4.03 13.07-28.29 15.24-55.24 1.6-19.84-3.05-24.21.96-44.75Z"/><path stroke="#222" stroke-miterlimit="10" d="M469.44 526.57c7.2 3.17 1.54-.11 7.2 3.17 3.36 1.95 7.28 7.23 15.1 17.78 3.77 5.08 4.76 6.86 7.72 9.4 1.46 1.25 3.92 3.07 12.42 6.71 9.84 4.21 11.97 4.07 18.12 7.05 3.14 1.52 7.66 4.02 12.75 8.05M520.06 504.25c2.96 4.78 6.71 13.72 8.95 17.23 4.24 6.64 5.34 8.2 6.86 9.97 4.18 4.87 8.35 7.63 11.2 9.52 14.42 9.54 52.25 20.53 59.5 21.75"/></svg>