<svg xmlns="http://www.w3.org/2000/svg" width="1080" height="1080" fill="none"><path fill="#059BDC" d="M135.97 642.6c-1.08-18-5.64-37.67-9.86-54.26-17.99-58.52 44.94-93.05 73.84-135.91 18.68-26.39 20.15-47.19 20.01-78.36.77-55.6 13.4-112.95 39.86-162.53 70.23-114.66 203.45-151.45 319.79-72.52 37.92 24.78 63.47 65.15 101.13 90.6 34.27 23.94 79.62 39.53 122.1 42.59 26.03 2.39 47.26-1.12 71.75 4.07 90.64 20.58 125.99 113.16 106.99 196.91-12.98 59.28-43.4 71.84-71.21 119.06-11.42 19.32-20.34 40.8-25.42 61.92-3.68 15.07-5.46 29.85-8.34 44.99-8.31 43.84-26.17 84.53-53.86 120.18-41.4 53.29-104.75 99.4-172.92 108.16-28.16 3.36-56.75-.62-82.24-12.05-13.43-5.88-25.56-13.03-39.45-17.98-36.97-13.51-67.67-7.79-102.33 8.04-23.7 10.08-49.54 18.45-75.36 21.29-74.59 7.69-172.53-15.4-204.23-89.17-14.27-33.79-15.18-73.24-13.56-109.69 1.32-28.63 5.34-56.17 3.32-85.06z" opacity=".1"/><path fill="#FFFACF" d="m534.747 288.41 5.072 11.802-85.037 43.532-6.017-11.65z"/><path fill="#F26D04" d="m539.819 300.212 1.946 15.2 67.041 135.41-71.057 36.954-72.207-134.862-10.76-9.17"/><path fill="#EAB716" d="m608.806 450.822-10.623 33.28-27.112 14.31-33.322-10.636z"/><path fill="#C45300" d="m598.183 484.102 9.567 17.202-28.003 14.516-8.676-17.408z"/><path fill="#D44729" d="M539.03 632.97c2.23-.94 5.78-2.14 10.27-2.37 0 0 6.99-.36 13.43 2.37 10.79 4.58 10.61 17.77 19.75 32.39 11.84 18.93 32.83 29.89 36.34 26.86 1.79-1.54-.56-7.07-1.58-9.48-3.57-8.4-9.08-11.48-14.22-16.59-7.81-7.77-10.75-16.25-15.8-30.81-4.63-13.34-2.69-15.11-6.32-22.91-5.13-11.04-14.26-18.85-24.49-24.49"/><path fill="#EAB716" d="m498.67 674.34-30.82-14.48h-26.07v-28.45l80.59-56.89 40.29-26.07 16.6 26.07-28.45 36.88-2.37 46.09z"/><path fill="#8DC63F" d="m506.93 701.8-8.43-27.39 53.2-20.01 7.37 30.02z"/><path fill="#fff" d="m566.62 557.14 12.64-8.69 7.11 12.64-11.17 7.06"/><path fill="#0077AB" d="M544.85 680.76c6.05-2.22 15.63-4.66 22.12 0 4.63 3.33 5.1 8.41 7.9 22.12 4.3 21.08 6.54 31.74 11.06 37.92 6.55 8.97 15.82 12.35 25.28 15.8 18.76 6.84 26.57 1.82 44.25 6.32 17.39 4.43 28.79 14.12 36.34 20.54 14.14 12.02 22.07 25.92 37.92 53.73 2.81 4.93 9.45 16.84 15.8 28.44 8.35 15.26 7.2 13.54 9.48 17.38 7.68 12.94 9.8 14.01 9.48 17.38-.75 8.06-13.72 11.25-33.18 20.54-3.76 1.79-15.15 8.57-37.92 22.12-16.62 9.89-33.85 18.72-50.57 28.44-10.64 6.19-18.3 10.79-22.12 7.9-4.19-3.17.55-12.04-1.58-26.86-1.44-10-5.19-17.03-7.9-22.12-10.33-19.37-24.05-21.99-37.92-36.34-4.99-5.16-7.83-9.6-22.12-44.25-21.64-52.44-32.63-79.36-41.09-113.77a545 545 0 0 1-7.9-37.92"/><path stroke="#222" stroke-miterlimit="10" stroke-width="1.5" d="m685.75 778.46-98.76 43.58L640 925.53 749 872"/><path fill="#C45300" d="M565.59 597.71c-1.65 1.07-4.89 3.53-6.99 7.97-3.28 6.93-1.09 14.12-.35 16.62 1.96 6.62 5.89 11.19 5.18 11.77-.41.33-1.59-1.27-4.74-2.46-1.77-.67-3.3-.88-4.27-1.01-1.91-.25-3.55-.21-4.79-.1l.44-18.6 14.37-18.49 2.19 1.85z"/><path stroke="#fff" stroke-linecap="round" stroke-linejoin="round" stroke-miterlimit="10" stroke-width="3" d="m457.75 634.11 45.09-31.02M507.62 599.59l8.7-6.18"/><path fill="#8DC63F" d="M761.05 287.79c-13.06-3.9-26.81 3.53-30.71 16.59l-77.32 258.89c-2.88 9.64 2.6 19.8 12.25 22.68l98.33 29.37c7.58 2.26 15.56-2.05 17.82-9.62l78.35-262.33c3.95-13.23-2.3-26.74-15.53-30.69l.91-1.41zl4.77-15.98c1.32-4.4 5.95-6.91 10.35-5.59l68.04 20.32c4.21 1.26 6.61 5.69 5.35 9.9l-4.42 14.81"/><path fill="#FFE500" d="m780.86 267.62 5.63-18.86a14.39 14.39 0 0 1 13.49-10.27l40.95-.85c6.95-.14 12.03 6.53 10.04 13.19l-9.83 32.91"/><path stroke="#222" stroke-miterlimit="10" stroke-width="3" d="M877.6 256.7h69.29M873.79 270.56l38.46 17.85M862.89 283.74l49.36 48.64"/><path stroke="#222" stroke-miterlimit="10" stroke-width="1.5" d="m761.05 287.79 83.18 24.88"/><path fill="#EAB716" d="M786.54 270.03a104 104 0 0 0 14.13 4.04c6.23 1.31 13.37 2.76 22.46 2.02 7.62-.62 12.12-.75 16.91-3.79 2.47-1.57 4.94-3.82 5.55-3.28.57.51-1.15 2.88-2.78 7.32-.96 2.62-1.48 4.84-1.77 6.31"/><path stroke="#fff" stroke-linecap="round" stroke-linejoin="round" stroke-miterlimit="10" stroke-width="3" d="M762.41 298.55c-5.95-1.87-9.88-.7-11.61 0-6.4 2.58-9.18 9.38-12.37 17.16a65 65 0 0 0-3.53 11.61"/><path fill="#2E8E47" d="M838.64 352.4c-19.27 63.72-35.97 128.18-62.67 189.28-8.55 19.57-19.82 40.44-39.61 47.64-5.6 2.04-11.88 2.98-16.31 7.02a199.2 199.2 0 0 0 40.09 15.17c4.67 1.21 10.2 2.05 13.79-1.22 2.05-1.87 2.96-4.68 3.79-7.36 26.45-85.89 52.89-171.78 79.34-257.67 1.24-4.03 2.5-8.24 1.82-12.41-1.59-9.83-12.67-14.62-22.33-16.14.08 4.25 2.44 8.34 3.86 12.26v16.42"/><path fill="#EAB716" d="m343.3 425.16 65.34 127.5-94.38 308.45-146.35-44.78c.72-2.36 1.45-4.73 2.17-7.09 1.99-6.52 3.99-13.04 5.98-19.56 3.01-9.83 6.02-19.66 9.02-29.49 3.76-12.3 7.53-24.6 11.29-36.9l12.78-41.77 13.5-44.11c4.48-14.64 8.96-29.28 13.44-43.91l12.6-41.19c3.66-11.98 7.33-23.95 10.99-35.93l8.61-28.14c1.82-5.94 3.63-11.87 5.45-17.81 5.89-19.24 23.34-33.58 41.25-41.35a83.5 83.5 0 0 1 11.51-4.03c3.57-.96 8.05-2.57 11.7-1.46 1.71.53 3.41 1.05 5.1 1.57"/><path fill="#8DC63F" d="m367.65 472.66 31.1-16.72-25.89-47.88-29.56 17.1"/><path fill="#D44729" d="m380.86 419.65 18.91-10.61a9.28 9.28 0 0 1 12.81 3.85l2.64 5.13c3.13 6.08.96 13.58-4.93 17.06l-16.08 9.5"/><path stroke="#222" stroke-miterlimit="10" stroke-width="2" d="M246.95 558.02 393.3 602.8M189.09 747.12l146.35 44.78"/><path stroke="#fff" stroke-linecap="round" stroke-linejoin="round" stroke-miterlimit="10" stroke-width="3" d="m293.7 472.66-19.73 75.79"/><path fill="#059BDC" d="M302.28 458.72c1.88-2.53 4.52-5.59 8.08-8.58 2.89-2.43 5.68-4.23 8.08-5.55"/><path stroke="#fff" stroke-linecap="round" stroke-linejoin="round" stroke-miterlimit="10" stroke-width="3" d="M302.28 458.72c1.88-2.53 4.52-5.59 8.08-8.58 2.89-2.43 5.68-4.23 8.08-5.55"/><path fill="#EAB716" d="m405.5 546.52-77.03 234.4-9.91 31.05-11.04 9.84-25.24 13.22-30.09-2.62-32.76-.75 96.17 26.16 93.04-305.17z"/><path fill="#E6E7E8" d="m525.51 206.03-89.23 86.92c-4.43 4.32-11.42 4.57-16.14.58l-92.61-78.14a11.61 11.61 0 0 1-2.15-15.34l68.68-102.37"/><path fill="#D7D7D7" d="m389.38 104.63 114.82 96.49v4.93l-3.02 9.95-5.68 8.79-52.65 53.02-14.75 10.77h-6.05l-8.85-.9 11.25 8.68 5.55-.2 6.28-3.21 93.12-89.93L398.57 97"/><path fill="#999C9E" d="M392.134 75.473 382.009 87.76l155.598 128.236 10.125-12.285z"/><path fill="#BEE9F6" d="m381.42 119.7 61.43 50.63-44.89 54.46-56.93-46.92"/><path fill="#8DC63F" d="M336.26 375.24c6.41-3.08 9.12-10.77 6.04-17.19l-6.93-14.44c-2.88-6.01-8.89-3.47-15.21-10.68l-.6-.72-23.24-54.39-13.25 6.36 27.61 52.3.46.79c1.68 9.45-4.07 12.54-1.18 18.55l6.93 14.44c3.08 6.42 10.77 9.12 17.19 6.04z"/><path fill="#4479BC" d="M590.26 320.24c-1.94 6.84 2.03 13.97 8.87 15.91l15.41 4.38c6.41 1.82 8.49-4.36 18.08-4.32l.94.03 56.14 18.62 4.02-14.14-57.47-13.96-.9-.17c-8.19-5-6.7-11.35-13.11-13.18l-15.41-4.38c-6.84-1.94-13.97 2.03-15.91 8.87z"/><path fill="#D44729" d="M765.97 674.41c-7.08-.73-13.4 4.42-14.13 11.5l-1.63 15.93c-.68 6.63 5.77 7.6 7.39 17.06l.13.93-8.59 58.52 14.62 1.5 3.77-59.02.01-.91c3.51-8.93 10.02-8.57 10.7-15.2l1.63-15.93c.73-7.08-4.42-13.4-11.5-14.13z"/></svg>