<svg xmlns="http://www.w3.org/2000/svg" width="800" height="800" fill="none"><path fill="#DAF1FA" d="M102.552 475.677c-.767-12.782-4.009-26.754-7.006-38.542-12.776-41.563 31.924-66.095 52.45-96.532 13.269-18.742 14.312-33.519 14.216-55.659.548-39.489 9.52-80.229 28.312-115.445 49.88-81.444 144.506-107.57 227.142-51.511 26.938 17.599 45.083 46.277 71.83 64.352 24.344 17.003 56.554 28.081 86.725 30.253 18.489 1.698 33.571-.798 50.963 2.894 64.378 14.616 89.486 80.378 75.994 139.861-9.216 42.104-30.828 51.029-50.576 84.565-8.115 13.726-14.446 28.983-18.058 43.983-2.618 10.705-3.88 21.204-5.924 31.953-5.902 31.138-18.587 60.042-38.261 85.364-29.409 37.854-74.403 70.602-122.821 76.822-19.998 2.384-40.31-.444-58.41-8.562-9.543-4.178-18.154-9.254-28.019-12.768-26.261-9.598-48.064-5.536-72.687 5.714-16.833 7.16-35.189 13.108-53.525 15.121-52.976 5.465-122.547-10.937-145.059-63.339-10.133-24.002-10.78-52.02-9.628-77.913.938-20.332 3.794-39.896 2.355-60.419z"/><path fill="#D44629" d="M421.25 516.754a21.6 21.6 0 0 1 7.296-1.684s4.964-.257 9.54 1.684c7.667 3.252 7.537 12.626 14.031 23.01 8.406 13.446 23.317 21.232 25.814 19.08 1.274-1.098-.394-5.022-1.122-6.735-2.536-5.967-6.45-8.151-10.102-11.785-5.548-5.52-7.637-11.544-11.224-21.887-3.285-9.473-1.913-10.729-4.489-16.275-3.643-7.841-10.128-13.388-17.397-17.397"/><path fill="#FAC753" d="m392.581 546.137-21.887-10.288h-18.52v-20.202l57.243-40.407 28.621-18.52 11.785 18.52-20.204 26.189-1.682 32.736z"/><path fill="#47A564" d="m398.447 565.645-5.987-19.455 37.788-14.217 5.238 21.325z"/><path fill="#fff" d="m440.846 462.893 8.979-6.173 5.052 8.978-7.934 5.015"/><path fill="#FDFAD6" d="m394.413 283.647 2.74 6.37-45.943 23.516-3.245-6.288z"/><path fill="#377FC1" d="m397.153 290.016 1.047 8.211 36.218 73.153-38.388 19.963-39.004-72.85-5.816-4.96"/><path fill="#FAC753" d="m434.419 371.381-5.743 17.977-14.644 7.735-18.002-5.75z"/><path fill="#FDFAD6" d="m428.676 389.358 5.175 9.292-15.131 7.844-4.688-9.401z"/><path fill="#E7E8E9" d="m484.089 156.551-82.028 79.898a11.055 11.055 0 0 1-14.842.529l-85.134-71.828a10.667 10.667 0 0 1-1.98-14.099l63.13-94.102"/><path fill="#377FC1" d="m351.632 77.196 56.468 46.538-41.261 50.064-52.335-43.132"/><path fill="#47A564" d="M546.542 223.658c-9.277-2.77-19.044 2.504-21.815 11.782l-54.918 183.885c-2.047 6.851 1.848 14.063 8.698 16.109l69.84 20.858c5.383 1.608 11.05-1.452 12.658-6.835l55.648-186.331c2.806-9.394-1.632-18.989-11.027-21.796l.643-1.002zl3.389-11.348a5.91 5.91 0 0 1 7.355-3.972l48.328 14.434a5.65 5.65 0 0 1 3.797 7.033l-3.142 10.523"/><path fill="#F2BC3C" d="m560.608 209.33 4-13.394a10.225 10.225 0 0 1 9.585-7.296l29.083-.6c4.939-.103 8.545 4.636 7.131 9.368l-7.32 24.51"/><path fill="#231F20" d="M678.542 203.006h-49.219v-2.858h49.219zM653.331 225.397l-27.312-12.68 1.202-2.592 27.314 12.68zM652.93 256.348 617.875 221.8l2.006-2.035 35.054 34.548z"/><path fill="#FAC753" d="m249.821 321.231 46.411 90.558-67.036 219.092-103.951-31.805 1.541-5.036 4.251-13.892q3.205-10.476 6.411-20.949l8.018-26.21 9.078-29.668 9.586-31.328q4.773-15.595 9.543-31.192l8.952-29.254 7.808-25.52 6.115-19.984 3.872-12.652c4.181-13.667 16.577-23.854 29.301-29.372a59 59 0 0 1 8.172-2.859c2.533-.681 5.72-1.829 8.312-1.036q1.808.553 3.616 1.107"/><path fill="#47A564" d="m267.113 354.972 22.093-11.876-18.391-34.007-20.994 12.141"/><path fill="#D44629" d="m276.496 317.319 13.434-7.538a6.59 6.59 0 0 1 9.096 2.735l1.876 3.645c2.221 4.319.682 9.648-3.499 12.119l-11.424 6.751"/><path fill="#231F20" d="m285.054 448.319-103.949-31.805.558-1.821 103.95 31.805zM243.958 582.631l-103.949-31.805.557-1.822 103.951 31.806z"/><path fill="#377FC1" d="M425.384 550.698c4.299-1.58 11.104-3.313 15.714 0 3.286 2.363 3.625 5.975 5.612 15.713 3.054 14.971 4.648 22.546 7.857 26.939 4.653 6.369 11.236 8.771 17.959 11.224 13.322 4.86 18.872 1.291 31.426 4.489 12.351 3.146 20.451 10.031 25.815 14.591 10.043 8.536 15.675 18.412 26.939 38.161 1.994 3.499 6.712 11.962 11.224 20.204 5.93 10.838 5.114 9.619 6.733 12.346 5.456 9.193 6.959 9.954 6.735 12.346-.534 5.723-9.744 7.988-23.571 14.592-2.668 1.275-10.757 6.088-26.937 15.714-11.806 7.024-24.043 13.297-35.916 20.204-7.558 4.394-12.998 7.665-15.715 5.612-2.973-2.25.389-8.556-1.121-19.082-1.022-7.106-3.684-12.097-5.612-15.713-7.34-13.757-17.086-15.617-26.939-25.816-3.543-3.667-5.559-6.817-15.713-31.427-15.37-37.248-23.178-56.369-29.183-80.813a387 387 0 0 1-5.612-26.937"/><path fill="#231F20" d="m605.42 242.016-59.082-17.674.409-1.369 59.083 17.673zM492.652 725.502l-.322-.625-37.993-74.177 70.837-31.259.578 1.308-69.452 30.647 36.982 72.205 76.79-37.712.63 1.281zM440.118 491.708c-1.168.763-3.472 2.509-4.962 5.661-2.327 4.926-.776 10.028-.251 11.808 1.389 4.703 4.183 7.947 3.677 8.358-.289.234-1.13-.902-3.369-1.747-1.261-.476-2.345-.625-3.033-.716a15.5 15.5 0 0 0-3.406-.072l.31-13.212 10.205-13.131 1.557 1.312z"/><path fill="#D7992D" d="M564.647 211.046c2.356.86 6.444.449 10.694 1.343 4.425.932 8.844 3.485 15.302 2.96 5.41-.44 8.61-.531 12.012-2.69 1.755-1.113 3.51-2.714 3.944-2.33.407.36-.617 2.61-1.772 5.765-.681 1.859-1.534 4.784-1.74 5.824"/><path fill="#00AEEF" d="m214.587 354.971-14.012 53.834z"/><path fill="#fff" d="M200.576 410.233q-.178.001-.361-.046a1.43 1.43 0 0 1-1.021-1.743l14.012-53.833a1.428 1.428 0 0 1 2.764.72l-14.012 53.833a1.43 1.43 0 0 1-1.382 1.069"/><path fill="#00AEEF" d="m363.515 517.565 32.031-22.036z"/><path fill="#fff" d="M363.516 518.994a1.428 1.428 0 0 1-.811-2.605l32.031-22.036a1.429 1.429 0 1 1 1.62 2.353l-32.031 22.036a1.4 1.4 0 0 1-.809.252"/><path fill="#00AEEF" d="m398.938 493.046 6.182-4.389z"/><path fill="#fff" d="M398.939 494.475a1.428 1.428 0 0 1-.828-2.594l6.181-4.389a1.428 1.428 0 1 1 1.653 2.329l-6.181 4.39a1.42 1.42 0 0 1-.825.264M527.971 253.171q-.144 0-.29-.03a1.43 1.43 0 0 1-1.112-1.686c.595-2.9 1.467-5.76 2.588-8.5 2.298-5.615 4.468-10.918 9.572-12.976 2.672-1.078 5.858-1.088 9.21-.039a1.43 1.43 0 0 1-.856 2.728c-2.715-.853-5.234-.865-7.286-.039-3.985 1.607-5.842 6.148-7.996 11.408a45 45 0 0 0-2.433 7.992 1.43 1.43 0 0 1-1.397 1.142"/><path fill="#00AEEF" d="M220.683 345.071a36 36 0 0 1 11.473-10.04"/><path fill="#fff" d="M220.682 346.499a1.43 1.43 0 0 1-1.146-2.28 37.5 37.5 0 0 1 11.928-10.438 1.433 1.433 0 0 1 1.943.558 1.43 1.43 0 0 1-.559 1.942 34.608 34.608 0 0 0-11.018 9.642c-.28.378-.712.576-1.148.576"/><path fill="#2F8E47" d="M601.653 269.553c-13.686 45.256-25.552 91.047-44.516 134.442-6.075 13.901-14.076 28.722-28.132 33.838-3.982 1.448-8.438 2.115-11.588 4.988a141.5 141.5 0 0 0 28.477 10.774c3.315.859 7.245 1.456 9.797-.865 1.459-1.327 2.104-3.327 2.691-5.23l56.351-183.019c.881-2.861 1.773-5.851 1.293-8.81-1.132-6.985-9.003-10.381-15.863-11.465.059 3.018 1.731 5.925 2.744 8.709v11.661"/><path fill="#E4AE40" d="m294 407.435-54.717 166.491-7.036 22.051-7.844 6.992-17.928 9.39-21.371-1.86-23.27-.538 68.306 18.588 66.092-216.759z"/><path fill="#D8D8D8" d="m358.948 63.34 105.553 88.701v4.524l-2.784 9.15-5.22 8.083-48.397 48.736-13.554 9.901h-5.568l-8.129-.832 10.343 7.98 5.096-.181 5.773-2.953 85.603-82.668L367.4 56.322"/><path fill="#231F20" d="m361.482 36.54 143.033 117.882-9.308 11.293L352.174 47.833z"/><path fill="#47A564" d="m161.927 151.809 10.779-9.554a162.6 162.6 0 0 1 32.395 10.696c25.082 11.325 41.412 26.429 54.514 38.75a270 270 0 0 1 20.271 21.26c3.756 4.391 3.339 10.974-.985 14.807l-27.799 24.641-28.437 25.208c-3.934 3.487-9.952 3.21-13.522-.65a270 270 0 0 1-19.332-23.39c-10.66-14.486-23.696-32.509-31.93-58.769a162.7 162.7 0 0 1-6.732-33.444z"/><path fill="#2F8E47" d="m173.793 145.875-19.182 17.002a3.25 3.25 0 0 1-4.586-.276l-9.794-11.048a3.25 3.25 0 0 1 .276-4.588l19.182-17.002a3.25 3.25 0 0 1 4.586.276l9.794 11.049a3.25 3.25 0 0 1-.276 4.587"/><path fill="#2F8E47" d="M178.325 148.272c7.956 1.413 14.72 6.69 22.259 9.6 13.519 5.218 23.519 12.92 36.053 22.577 2.188 1.685 10.328 8.024 20.083 17.487 7.439 7.214 7.339 8.025 14.844 15.712 3.725 3.814 5.063 4.957 6.284 7.605.757 1.641 1.465 3.851 2.323 3.784.502-.039.808-.84 1.209-1.932.521-1.415 1.289-3.499.832-6.236-.295-1.753-.953-2.945-1.661-4.199-1.263-2.237-2.675-3.636-5.448-6.341-1.819-1.773-2.003-1.787-3.968-3.7-2.254-2.193-3.795-3.911-4.374-4.545-3.221-3.536-7.333-7.239-12.148-11.572-5.932-5.342-10.402-9.366-16.032-13.628-10.186-7.712-18.913-12.223-26.454-16.079-9.352-4.779-18.399-9.539-25.659-11.109-4.175-.904-9.251-1.098-13.548-3.459-.579-.317-2.163-1.235-2.595-.793-.448.457.488 2.222 1.438 3.366 2.28 2.748 5.82 3.33 6.562 3.462"/><path fill="#fff" d="m248.924 216.76-35.933 31.852a6.92 6.92 0 0 1-9.771-.588l-14.703-16.586a6.92 6.92 0 0 1 .588-9.772l35.934-31.852a6.92 6.92 0 0 1 9.77.588l14.703 16.588a6.92 6.92 0 0 1-.588 9.77"/><mask id="a" width="22" height="54" x="157" y="168" maskUnits="userSpaceOnUse" style="mask-type:luminance"><path fill="#fff" d="M157.99 168.167h20.426v53.307H157.99z"/></mask><g mask="url(#a)"><path fill="#fff" d="M177.469 221.476a.95.95 0 0 1-.825-.474 154 154 0 0 1-11.058-23.4 154 154 0 0 1-7.584-28.324.95.95 0 0 1 .782-1.096.95.95 0 0 1 1.097.781 152 152 0 0 0 7.489 27.973 152.3 152.3 0 0 0 10.922 23.11.953.953 0 0 1-.823 1.43" opacity=".5"/></g></svg>