<svg width="24" height="24" viewBox="0 0 24 24" fill="none" xmlns="http://www.w3.org/2000/svg">
<path d="M12 21C10.05 21 8.39583 20.3208 7.0375 18.9625C5.67917 17.6041 5 15.95 5 14C5 12.4333 5.4625 11.0291 6.3875 9.78748C7.3125 8.54581 8.525 7.70831 10.025 7.27498C9.69167 7.19164 9.36667 7.07081 9.05 6.91248C8.73333 6.75414 8.45 6.54998 8.2 6.29998C7.65 5.74998 7.29583 5.09581 7.1375 4.33748C6.97917 3.57914 6.94167 2.80831 7.025 2.02498C7.80833 1.94164 8.57917 1.97914 9.3375 2.13748C10.0958 2.29581 10.75 2.64998 11.3 3.19998C11.6833 3.58331 11.9625 4.01664 12.1375 4.49998C12.3125 4.98331 12.425 5.49164 12.475 6.02498C12.6917 5.50831 12.9542 5.02081 13.2625 4.56248C13.5708 4.10414 13.9167 3.68331 14.3 3.29998C14.4833 3.11664 14.7167 3.02498 15 3.02498C15.2833 3.02498 15.5167 3.11664 15.7 3.29998C15.8833 3.48331 15.975 3.71664 15.975 3.99998C15.975 4.28331 15.8833 4.51664 15.7 4.69998C15.3333 5.06664 15.0083 5.47081 14.725 5.91248C14.4417 6.35414 14.2333 6.82498 14.1 7.32498C15.5667 7.79164 16.75 8.63748 17.65 9.86248C18.55 11.0875 19 12.4666 19 14C19 15.95 18.3208 17.6041 16.9625 18.9625C15.6042 20.3208 13.95 21 12 21ZM12 19C13.3833 19 14.5625 18.5125 15.5375 17.5375C16.5125 16.5625 17 15.3833 17 14C17 12.6166 16.5125 11.4375 15.5375 10.4625C14.5625 9.48748 13.3833 8.99998 12 8.99998C10.6167 8.99998 9.4375 9.48748 8.4625 10.4625C7.4875 11.4375 7 12.6166 7 14C7 15.3833 7.4875 16.5625 8.4625 17.5375C9.4375 18.5125 10.6167 19 12 19Z" fill="black"/>
</svg>
