<svg xmlns="http://www.w3.org/2000/svg" viewBox="0 0 220 40" width="220" height="40" fill="none">
  <path fill="#8CC63F" fill-rule="evenodd" d="M25.0918 33.7993c7.0121-2.2075 12.0973-8.7609 12.0973-16.502C37.1891 7.74426 29.4448 0 19.8918 0 10.3387 0 2.59448 7.74426 2.59448 17.2973c0 7.7411 5.08518 14.2945 12.09732 16.502l5.2 6.0806 5.2-6.0806Z" clip-rule="evenodd"/>
  <path fill="#fff" d="M31.6155 19.988c-1.4895 1.7297-2.6907 3.0751-2.7868 3.1231-.096-.0961-1.2972-1.4414-2.7867-3.1231-1.3454-1.5375-1.97-2.3544-1.97-3.3634 0-1.1051.8649-2.018 2.1622-2.018.4804 0 .8648.1442 1.2492.3844-1.0571-3.3153-4.0841-5.66968-7.5916-5.66968-4.3724 0-7.8318 3.55558-7.8318 8.02398 0 4.4685 3.4594 8.0241 7.8318 8.0241 1.6817 0 2.9309-.4325 3.6517-.9129l1.5375 1.9699c-1.2492.961-3.4114 1.4895-5.1892 1.4895-5.8618 0-10.61861-4.7087-10.61861-10.5706 0-5.8618 4.75681-10.61857 10.61861-10.61857 5.0451 0 9.3213 3.50747 10.2823 8.21617.3844-.2402.7688-.3843 1.2492-.3843 1.2973 0 2.1622.9129 2.1622 2.018 0 1.057-.6246 1.8739-1.97 3.4114Z"/>
  <path class="logo-text logo-text--en" fill="#222" d="M47.9617 17.3511h.7479c.7816 0 1.3812-.1618 1.7989-.4853.4178-.3235.6266-.7886.6266-1.3952s-.2088-1.0717-.6266-1.3952c-.4177-.3236-1.0173-.4853-1.7989-.4853h-.7479v3.761Zm8.7117 8.432h-4.9319l-3.7798-5.864v5.864H44V10.5368h6.1649c.849 0 1.5901.128 2.2234.3842.6334.2426 1.1522.5796 1.5564 1.011.4177.4314.7277.9301.9298 1.4963.2156.5662.3234 1.1728.3234 1.8199 0 1.1593-.283 2.1029-.8489 2.8308-.5525.7145-1.3745 1.1998-2.466 1.4559l4.7904 6.2482ZM64.339 19.0901c-.1213-.5123-.3706-.9234-.7479-1.2335-.3773-.31-.8354-.4651-1.3744-.4651-.566 0-1.0309.1483-1.3947.4449-.3504.2966-.5727.7145-.6671 1.2537h4.1841Zm-4.2851 2.1231c0 1.5772.7411 2.3658 2.2234 2.3658.795 0 1.3947-.3235 1.7989-.9705h3.5373c-.7142 2.3725-2.4997 3.5588-5.3564 3.5588-.8759 0-1.6777-.1281-2.4053-.3842-.7277-.2696-1.3543-.6471-1.8798-1.1324-.5121-.4853-.9096-1.0649-1.1926-1.7389-.283-.6741-.4245-1.429-.4245-2.2647 0-.8628.1348-1.6379.4043-2.3254.2695-.701.6535-1.2941 1.1521-1.7794.4986-.4853 1.0983-.856 1.799-1.1122.7142-.2696 1.5159-.4044 2.4053-.4044.8759 0 1.6642.1348 2.3649.4044.7007.2562 1.2936.6336 1.7787 1.1324.4851.4988.8557 1.1121 1.1117 1.8401.2561.7144.3841 1.5233.3841 2.4264v.3842h-7.7011ZM77.2896 18.7665c-.6334-.4313-1.2734-.647-1.9202-.647-.3504 0-.6805.0606-.9905.182-.2964.1213-.5592.2965-.7883.5257-.229.2157-.411.4786-.5457.7886-.1213.2966-.1819.6336-.1819 1.011 0 .364.0606.701.1819 1.0111.1347.2965.3099.5594.5255.7886.2291.2157.4986.3842.8085.5055.31.1213.6401.182.9905.182.6872 0 1.3273-.2359 1.9202-.7078v3.114c-.9029.3909-1.7585.5864-2.567.5864-.7547 0-1.4756-.128-2.1628-.3842-.6738-.2561-1.2734-.6201-1.799-1.0919-.512-.4853-.923-1.0582-1.2329-1.7187-.31-.6741-.4649-1.4222-.4649-2.2445s.1482-1.5705.4446-2.2445c.2965-.6875.7008-1.2739 1.2128-1.7592.5121-.4988 1.1185-.883 1.8192-1.1526.7142-.2831 1.4755-.4246 2.284-.4246.8894 0 1.7114.1887 2.466.5662v3.1139ZM83.1358 24.3676l-5.0128-8.9577h4.2447l2.7692 5.318 2.6883-5.318h4.2043l-8.3277 15.5497h-4.1032l3.5372-6.592ZM99.9106 18.7665c-.6334-.4313-1.2734-.647-1.9202-.647-.3504 0-.6805.0606-.9905.182-.2964.1213-.5592.2965-.7883.5257-.229.2157-.411.4786-.5457.7886-.1213.2966-.1819.6336-.1819 1.011 0 .364.0606.701.1819 1.0111.1347.2965.3099.5594.5255.7886.2291.2157.4986.3842.8085.5055.31.1213.6401.182.9905.182.6872 0 1.3273-.2359 1.9202-.7078v3.114c-.9029.3909-1.7585.5864-2.567.5864-.7547 0-1.4756-.128-2.1628-.3842-.6738-.2561-1.2734-.6201-1.799-1.0919-.512-.4853-.923-1.0582-1.2329-1.7187-.31-.6741-.4649-1.4222-.4649-2.2445s.1482-1.5705.4446-2.2445c.2965-.6875.7008-1.2739 1.2128-1.7592.5121-.4988 1.1185-.883 1.8192-1.1526.7142-.2831 1.4755-.4246 2.284-.4246.8894 0 1.7114.1887 2.466.5662v3.1139ZM105.656 9v16.7831h-3.659V9h3.659ZM111.435 15.4099v10.3732h-3.658V15.4099h3.658Zm-3.901-3.9834c0-.2831.054-.546.162-.7886.108-.2562.256-.4786.445-.66731.188-.18873.404-.33701.646-.44485.257-.10785.526-.16177.809-.16177.283 0 .546.05392.788.16177.256.10784.479.25612.667.44485.189.18871.337.41111.445.66731.108.2426.162.5055.162.7886s-.054.5527-.162.8088c-.108.2426-.256.4583-.445.6471-.188.1887-.411.337-.667.4448-.242.1078-.505.1618-.788.1618-.283 0-.552-.054-.809-.1618-.242-.1078-.458-.2561-.646-.4448-.189-.1888-.337-.4045-.445-.6471-.108-.2561-.162-.5257-.162-.8088ZM113.556 15.4099h3.659v1.3144c.499-.6067 1.004-1.0111 1.516-1.2133.512-.2157 1.112-.3235 1.799-.3235.728 0 1.347.1213 1.859.364.526.2291.971.5594 1.335.9908.296.3505.498.7414.606 1.1728.108.4313.162.9234.162 1.4761v6.5919h-3.659V20.546c0-.5123-.04-.9235-.121-1.2335-.068-.3235-.196-.5797-.384-.7684-.162-.1617-.344-.2763-.546-.3437-.202-.0674-.418-.1011-.647-.1011-.62 0-1.098.1887-1.435.5661-.323.364-.485.8897-.485 1.5772v5.5405h-3.659V15.4099ZM129.743 20.546c0 .337.061.6538.182.9503.121.2831.283.5325.485.7482.216.2157.465.3842.748.5055.296.1213.613.182.95.182.323 0 .627-.0607.91-.182.296-.1213.545-.2898.747-.5055.216-.2157.385-.4651.506-.7482.135-.2965.202-.6066.202-.9301 0-.337-.067-.6471-.202-.9302-.121-.2831-.29-.5324-.506-.7481-.215-.2157-.471-.3842-.768-.5055-.283-.1214-.579-.182-.889-.182-.323 0-.627.0674-.91.2022-.283.1213-.532.2898-.747.5055-.216.2022-.391.4448-.526.7279-.121.2831-.182.5864-.182.91Zm8.207-5.1361v9.6655c0 .5796-.034 1.0986-.102 1.557-.067.4583-.161.8627-.282 1.2132-.162.4448-.418.856-.769 1.2334-.336.391-.747.728-1.233 1.0111-.485.2831-1.037.5055-1.657.6673-.606.1617-1.267.2426-1.981.2426-.808 0-1.55-.1011-2.223-.3033-.674-.2022-1.267-.4853-1.779-.8493-.499-.3505-.91-.7684-1.233-1.2537-.323-.4718-.539-.9908-.647-1.5569h4.124c.256.6875.835 1.0312 1.738 1.0312.768 0 1.354-.2157 1.758-.647.418-.4314.627-1.0313.627-1.7997v-.9908c-.269.2561-.532.4718-.788.6471-.243.1617-.492.2965-.748.4044-.256.1078-.526.182-.809.2224-.283.0539-.593.0809-.929.0809-.742 0-1.422-.1281-2.042-.3842-.62-.2561-1.159-.6134-1.617-1.0717-.445-.4583-.795-1.0043-1.051-1.6379-.243-.647-.364-1.3615-.364-2.1433 0-.7954.135-1.5301.404-2.2041.27-.6875.634-1.2806 1.092-1.7794.472-.5122 1.024-.9099 1.657-1.193.647-.2966 1.348-.4449 2.102-.4449 1.227 0 2.258.4584 3.093 1.375v-1.0919h3.659ZM147.302 10.5368v11.8897h4.75v3.3566h-9.09V10.5368h4.34ZM156.959 20.546c0 .3504.06.674.181.9705.135.2831.304.5325.506.7482.215.2157.465.3842.748.5055.296.1213.606.182.929.182.324 0 .627-.0607.91-.182.296-.1213.546-.2898.748-.5055.216-.2157.384-.4651.505-.7482.135-.2965.202-.6133.202-.9503 0-.3236-.067-.6269-.202-.91-.121-.2965-.289-.5526-.505-.7683-.202-.2157-.452-.3842-.748-.5055-.283-.1214-.586-.182-.91-.182-.323 0-.633.0606-.929.182-.283.1213-.533.2898-.748.5055-.202.2157-.371.465-.506.7481-.121.2831-.181.5864-.181.91Zm-3.861-.0405c0-.7684.155-1.4828.465-2.1434.31-.674.741-1.2536 1.293-1.7389.553-.4988 1.206-.8897 1.961-1.1728.768-.2831 1.604-.4247 2.506-.4247.89 0 1.712.1416 2.466.4247.769.2696 1.429.6538 1.981 1.1525.566.4853 1.004 1.0717 1.314 1.7592.31.6741.465 1.4222.465 2.2445s-.162 1.5772-.485 2.2647c-.31.674-.741 1.2604-1.294 1.7592-.552.4853-1.219.8628-2.001 1.1324-.768.2696-1.603.4044-2.506.4044-.89 0-1.712-.1348-2.466-.4044-.755-.2696-1.408-.6538-1.961-1.1526-.539-.4988-.963-1.0919-1.273-1.7794-.31-.701-.465-1.4761-.465-2.3254ZM175.225 18.7665c-.634-.4313-1.274-.647-1.92-.647-.351 0-.681.0606-.991.182-.296.1213-.559.2965-.788.5257-.229.2157-.411.4786-.546.7886-.121.2966-.182.6336-.182 1.011 0 .364.061.701.182 1.0111.135.2965.31.5594.526.7886.229.2157.498.3842.808.5055.31.1213.64.182.991.182.687 0 1.327-.2359 1.92-.7078v3.114c-.903.3909-1.759.5864-2.567.5864-.755 0-1.476-.128-2.163-.3842-.674-.2561-1.273-.6201-1.799-1.0919-.512-.4853-.923-1.0582-1.233-1.7187-.31-.6741-.465-1.4222-.465-2.2445s.148-1.5705.445-2.2445c.296-.6875.701-1.2739 1.213-1.7592.512-.4988 1.118-.883 1.819-1.1526.714-.2831 1.475-.4246 2.284-.4246.889 0 1.711.1887 2.466.5662v3.1139ZM180.455 20.5662c0 .337.06.6538.181.9503.122.2831.283.5325.486.7482.215.2157.464.3842.747.5055.297.1213.614.182.95.182.324 0 .627-.0607.91-.182.296-.1213.546-.2898.748-.5055.216-.2157.384-.4651.505-.7482.135-.283.202-.5864.202-.9099s-.067-.6268-.202-.9099c-.121-.2966-.289-.5527-.505-.7684-.202-.2157-.452-.3842-.748-.5055-.283-.1213-.586-.182-.91-.182-.336 0-.653.0607-.95.182-.283.1213-.532.2898-.747.5055-.203.2157-.364.4651-.486.7482-.121.2696-.181.5661-.181.8897Zm4.608-5.1563h3.679v10.3732h-3.679v-1.1526c-.781.9841-1.839 1.4761-3.173 1.4761-.755 0-1.449-.1348-2.082-.4044-.634-.2831-1.186-.674-1.658-1.1728-.471-.4988-.842-1.0852-1.111-1.7592-.256-.674-.384-1.4087-.384-2.204 0-.7414.128-1.4424.384-2.103.256-.674.613-1.2604 1.071-1.7592.458-.4987 1.004-.8897 1.637-1.1728.633-.2965 1.334-.4448 2.102-.4448 1.294 0 2.365.4516 3.214 1.3548v-1.0313ZM195.314 18.4632v7.3199h-3.658v-7.3199h-1.213v-3.0533h1.213V12.296h3.658v3.1139h2.082v3.0533h-2.082ZM202.153 20.546c0 .3504.061.674.182.9705.135.2831.303.5325.505.7482.216.2157.465.3842.748.5055.297.1213.607.182.93.182.323 0 .627-.0607.91-.182.296-.1213.545-.2898.748-.5055.215-.2157.384-.4651.505-.7482.135-.2965.202-.6133.202-.9503 0-.3236-.067-.6269-.202-.91-.121-.2965-.29-.5526-.505-.7683-.203-.2157-.452-.3842-.748-.5055-.283-.1214-.587-.182-.91-.182-.323 0-.633.0606-.93.182-.283.1213-.532.2898-.748.5055-.202.2157-.37.465-.505.7481-.121.2831-.182.5864-.182.91Zm-3.86-.0405c0-.7684.154-1.4828.464-2.1434.31-.674.742-1.2536 1.294-1.7389.553-.4988 1.206-.8897 1.961-1.1728.768-.2831 1.603-.4247 2.506-.4247.889 0 1.711.1416 2.466.4247.768.2696 1.428.6538 1.981 1.1525.566.4853 1.004 1.0717 1.314 1.7592.31.6741.465 1.4222.465 2.2445s-.162 1.5772-.485 2.2647c-.31.674-.742 1.2604-1.294 1.7592-.553.4853-1.22.8628-2.001 1.1324-.768.2696-1.604.4044-2.507.4044-.889 0-1.711-.1348-2.466-.4044-.754-.2696-1.408-.6538-1.96-1.1526-.539-.4988-.964-1.0919-1.274-1.7794-.31-.701-.464-1.4761-.464-2.3254ZM212.218 15.4099h3.659v1.6986c.39-.6201.869-1.092 1.435-1.4155.566-.337 1.226-.5055 1.981-.5055h.303c.121 0 .256.0135.404.0404v3.4982c-.485-.2426-1.011-.364-1.577-.364-.849 0-1.489.2562-1.92.7684-.418.4988-.626 1.2335-.626 2.2041v4.4485h-3.659V15.4099Z"/>
  <path class="logo-text logo-text--cy" d="M47.4501 11.428V22.012H51.6801V25H43.9221V11.428H47.4501Z M56.4542 10.06V25H53.1962V10.06H56.4542Z M65.4306 19.042C65.3226 18.586 65.1006 18.22 64.7646 17.944C64.4286 17.668 64.0206 17.53 63.5406 17.53C63.0366 17.53 62.6226 17.662 62.2986 17.926C61.9866 18.19 61.7886 18.562 61.7046 19.042H65.4306ZM61.6146 20.932C61.6146 22.336 62.2746 23.038 63.5946 23.038C64.3026 23.038 64.8366 22.75 65.1966 22.174H68.3466C67.7106 24.286 66.1206 25.342 63.5766 25.342C62.7966 25.342 62.0826 25.228 61.4346 25C60.7866 24.76 60.2286 24.424 59.7606 23.992C59.3046 23.56 58.9506 23.044 58.6986 22.444C58.4466 21.844 58.3206 21.172 58.3206 20.428C58.3206 19.66 58.4406 18.97 58.6806 18.358C58.9206 17.734 59.2626 17.206 59.7066 16.774C60.1506 16.342 60.6846 16.012 61.3086 15.784C61.9446 15.544 62.6586 15.424 63.4506 15.424C64.2306 15.424 64.9326 15.544 65.5566 15.784C66.1806 16.012 66.7086 16.348 67.1406 16.792C67.5726 17.236 67.9026 17.782 68.1306 18.43C68.3586 19.066 68.4726 19.786 68.4726 20.59V20.932H61.6146Z M73.4129 20.338C73.4129 20.65 73.4669 20.938 73.5749 21.202C73.6949 21.454 73.8449 21.676 74.0249 21.868C74.2169 22.06 74.4389 22.21 74.6909 22.318C74.9549 22.426 75.2309 22.48 75.5189 22.48C75.8069 22.48 76.0769 22.426 76.3289 22.318C76.5929 22.21 76.8149 22.06 76.9949 21.868C77.1869 21.676 77.3369 21.454 77.4449 21.202C77.5649 20.938 77.6249 20.656 77.6249 20.356C77.6249 20.068 77.5649 19.798 77.4449 19.546C77.3369 19.282 77.1869 19.054 76.9949 18.862C76.8149 18.67 76.5929 18.52 76.3289 18.412C76.0769 18.304 75.8069 18.25 75.5189 18.25C75.2309 18.25 74.9549 18.304 74.6909 18.412C74.4389 18.52 74.2169 18.67 74.0249 18.862C73.8449 19.054 73.6949 19.276 73.5749 19.528C73.4669 19.78 73.4129 20.05 73.4129 20.338ZM69.9749 20.302C69.9749 19.618 70.1129 18.982 70.3889 18.394C70.6649 17.794 71.0489 17.278 71.5409 16.846C72.0329 16.402 72.6149 16.054 73.2869 15.802C73.9709 15.55 74.7149 15.424 75.5189 15.424C76.3109 15.424 77.0429 15.55 77.7149 15.802C78.3989 16.042 78.9869 16.384 79.4789 16.828C79.9829 17.26 80.3729 17.782 80.6489 18.394C80.9249 18.994 81.0629 19.66 81.0629 20.392C81.0629 21.124 80.9189 21.796 80.6309 22.408C80.3549 23.008 79.9709 23.53 79.4789 23.974C78.9869 24.406 78.3929 24.742 77.6969 24.982C77.0129 25.222 76.2689 25.342 75.4649 25.342C74.6729 25.342 73.9409 25.222 73.2689 24.982C72.5969 24.742 72.0149 24.4 71.5229 23.956C71.0429 23.512 70.6649 22.984 70.3889 22.372C70.1129 21.748 69.9749 21.058 69.9749 20.302Z M86.1964 10.06V25H82.9384V10.06H86.1964Z M91.9465 23.74L87.4825 15.766H91.2625L93.7285 20.5L96.1225 15.766H99.8665L92.4505 29.608H88.7965L91.9465 23.74Z M103.541 20.356C103.541 20.656 103.595 20.938 103.703 21.202C103.811 21.454 103.955 21.676 104.135 21.868C104.327 22.06 104.549 22.21 104.801 22.318C105.065 22.426 105.347 22.48 105.647 22.48C105.935 22.48 106.205 22.426 106.457 22.318C106.721 22.21 106.943 22.06 107.123 21.868C107.315 21.676 107.465 21.454 107.573 21.202C107.693 20.95 107.753 20.68 107.753 20.392C107.753 20.104 107.693 19.834 107.573 19.582C107.465 19.318 107.315 19.09 107.123 18.898C106.943 18.706 106.721 18.556 106.457 18.448C106.205 18.34 105.935 18.286 105.647 18.286C105.359 18.286 105.083 18.34 104.819 18.448C104.567 18.556 104.345 18.706 104.153 18.898C103.973 19.09 103.823 19.312 103.703 19.564C103.595 19.804 103.541 20.068 103.541 20.356ZM107.645 10.06H110.921V25H107.645V23.974C106.949 24.85 106.007 25.288 104.819 25.288C104.147 25.288 103.529 25.162 102.965 24.91C102.401 24.658 101.909 24.31 101.489 23.866C101.069 23.422 100.739 22.9 100.499 22.3C100.271 21.7 100.157 21.052 100.157 20.356C100.157 19.696 100.265 19.072 100.481 18.484C100.709 17.884 101.027 17.362 101.435 16.918C101.843 16.474 102.329 16.126 102.893 15.874C103.469 15.61 104.099 15.478 104.783 15.478C105.935 15.478 106.889 15.88 107.645 16.684V10.06Z M116.162 20.356C116.162 20.656 116.216 20.938 116.324 21.202C116.432 21.454 116.576 21.676 116.756 21.868C116.948 22.06 117.17 22.21 117.422 22.318C117.686 22.426 117.968 22.48 118.268 22.48C118.556 22.48 118.826 22.426 119.078 22.318C119.342 22.21 119.564 22.06 119.744 21.868C119.936 21.676 120.086 21.454 120.194 21.202C120.314 20.95 120.374 20.68 120.374 20.392C120.374 20.104 120.314 19.834 120.194 19.582C120.086 19.318 119.936 19.09 119.744 18.898C119.564 18.706 119.342 18.556 119.078 18.448C118.826 18.34 118.556 18.286 118.268 18.286C117.98 18.286 117.704 18.34 117.44 18.448C117.188 18.556 116.966 18.706 116.774 18.898C116.594 19.09 116.444 19.312 116.324 19.564C116.216 19.804 116.162 20.068 116.162 20.356ZM120.266 10.06H123.542V25H120.266V23.974C119.57 24.85 118.628 25.288 117.44 25.288C116.768 25.288 116.15 25.162 115.586 24.91C115.022 24.658 114.53 24.31 114.11 23.866C113.69 23.422 113.36 22.9 113.12 22.3C112.892 21.7 112.778 21.052 112.778 20.356C112.778 19.696 112.886 19.072 113.102 18.484C113.33 17.884 113.648 17.362 114.056 16.918C114.464 16.474 114.95 16.126 115.514 15.874C116.09 15.61 116.72 15.478 117.404 15.478C118.556 15.478 119.51 15.88 120.266 16.684V10.06Z M139.562 19.96L137.978 15.442L136.394 19.96H139.562ZM140.498 22.642H135.458L134.648 25H130.886L136.052 11.428H139.904L145.07 25H141.308L140.498 22.642Z M149.759 15.766V25H146.501V15.766H149.759ZM146.285 12.22C146.285 11.968 146.333 11.734 146.429 11.518C146.525 11.29 146.657 11.092 146.825 10.924C146.993 10.756 147.185 10.624 147.401 10.528C147.629 10.432 147.869 10.384 148.121 10.384C148.373 10.384 148.607 10.432 148.823 10.528C149.051 10.624 149.249 10.756 149.417 10.924C149.585 11.092 149.717 11.29 149.813 11.518C149.909 11.734 149.957 11.968 149.957 12.22C149.957 12.472 149.909 12.712 149.813 12.94C149.717 13.156 149.585 13.348 149.417 13.516C149.249 13.684 149.051 13.816 148.823 13.912C148.607 14.008 148.373 14.056 148.121 14.056C147.869 14.056 147.629 14.008 147.401 13.912C147.185 13.816 146.993 13.684 146.825 13.516C146.657 13.348 146.525 13.156 146.429 12.94C146.333 12.712 146.285 12.472 146.285 12.22Z M149.759 15.766V25H146.501V15.766H149.759ZM146.285 12.22C146.285 11.968 146.333 11.734 146.429 11.518C146.525 11.29 146.657 11.092 146.825 10.924C146.993 10.756 147.185 10.624 147.401 10.528C147.629 10.432 147.869 10.384 148.121 10.384C148.373 10.384 148.607 10.432 148.823 10.528C149.051 10.624 149.249 10.756 149.417 10.924C149.585 11.092 149.717 11.29 149.813 11.518C149.909 11.734 149.957 11.968 149.957 12.22C149.957 12.472 149.909 12.712 149.813 12.94C149.717 13.156 149.585 13.348 149.417 13.516C149.249 13.684 149.051 13.816 148.823 13.912C148.607 14.008 148.373 14.056 148.121 14.056C147.869 14.056 147.629 14.008 147.401 13.912C147.185 13.816 146.993 13.684 146.825 13.516C146.657 13.348 146.525 13.156 146.429 12.94C146.333 12.712 146.285 12.472 146.285 12.22Z M155.243 10.06V25H151.985V10.06H155.243Z M160.494 20.338C160.494 20.638 160.548 20.92 160.656 21.184C160.764 21.436 160.908 21.658 161.088 21.85C161.28 22.042 161.502 22.192 161.754 22.3C162.018 22.408 162.3 22.462 162.6 22.462C162.888 22.462 163.158 22.408 163.41 22.3C163.674 22.192 163.896 22.042 164.076 21.85C164.268 21.658 164.418 21.436 164.526 21.184C164.646 20.92 164.706 20.644 164.706 20.356C164.706 20.056 164.646 19.78 164.526 19.528C164.418 19.276 164.268 19.054 164.076 18.862C163.884 18.67 163.656 18.52 163.392 18.412C163.14 18.304 162.876 18.25 162.6 18.25C162.312 18.25 162.042 18.31 161.79 18.43C161.538 18.538 161.316 18.688 161.124 18.88C160.932 19.06 160.776 19.276 160.656 19.528C160.548 19.78 160.494 20.05 160.494 20.338ZM167.802 15.766V24.37C167.802 24.886 167.772 25.348 167.712 25.756C167.652 26.164 167.568 26.524 167.46 26.836C167.316 27.232 167.088 27.598 166.776 27.934C166.476 28.282 166.11 28.582 165.678 28.834C165.246 29.086 164.754 29.284 164.202 29.428C163.662 29.572 163.074 29.644 162.438 29.644C161.718 29.644 161.058 29.554 160.458 29.374C159.858 29.194 159.33 28.942 158.874 28.618C158.43 28.306 158.064 27.934 157.776 27.502C157.488 27.082 157.296 26.62 157.2 26.116H160.872C161.1 26.728 161.616 27.034 162.42 27.034C163.104 27.034 163.626 26.842 163.986 26.458C164.358 26.074 164.544 25.54 164.544 24.856V23.974C164.304 24.202 164.07 24.394 163.842 24.55C163.626 24.694 163.404 24.814 163.176 24.91C162.948 25.006 162.708 25.072 162.456 25.108C162.204 25.156 161.928 25.18 161.628 25.18C160.968 25.18 160.362 25.066 159.81 24.838C159.258 24.61 158.778 24.292 158.37 23.884C157.974 23.476 157.662 22.99 157.434 22.426C157.218 21.85 157.11 21.214 157.11 20.518C157.11 19.81 157.23 19.156 157.47 18.556C157.71 17.944 158.034 17.416 158.442 16.972C158.862 16.516 159.354 16.162 159.918 15.91C160.494 15.646 161.118 15.514 161.79 15.514C162.882 15.514 163.8 15.922 164.544 16.738V15.766H167.802Z M173.544 23.74L169.08 15.766H172.86L175.326 20.5L177.72 15.766H181.464L174.048 29.608H170.394L173.544 23.74Z M186.023 10.06V25H182.765V10.06H186.023Z M195.215 18.754C194.651 18.37 194.081 18.178 193.505 18.178C193.193 18.178 192.899 18.232 192.623 18.34C192.359 18.448 192.125 18.604 191.921 18.808C191.717 19 191.555 19.234 191.435 19.51C191.327 19.774 191.273 20.074 191.273 20.41C191.273 20.734 191.327 21.034 191.435 21.31C191.555 21.574 191.711 21.808 191.903 22.012C192.107 22.204 192.347 22.354 192.623 22.462C192.899 22.57 193.193 22.624 193.505 22.624C194.117 22.624 194.687 22.414 195.215 21.994V24.766C194.411 25.114 193.649 25.288 192.929 25.288C192.257 25.288 191.615 25.174 191.003 24.946C190.403 24.718 189.869 24.394 189.401 23.974C188.945 23.542 188.579 23.032 188.303 22.444C188.027 21.844 187.889 21.178 187.889 20.446C187.889 19.714 188.021 19.048 188.285 18.448C188.549 17.836 188.909 17.314 189.365 16.882C189.821 16.438 190.361 16.096 190.985 15.856C191.621 15.604 192.299 15.478 193.019 15.478C193.811 15.478 194.543 15.646 195.215 15.982V18.754Z M197.53 10.06H200.788V16.936C201.232 16.396 201.682 16.036 202.138 15.856C202.594 15.664 203.128 15.568 203.74 15.568C204.904 15.568 205.78 15.892 206.368 16.54C206.968 17.176 207.268 18.04 207.268 19.132V25H204.01V20.338C204.01 19.87 203.974 19.492 203.902 19.204C203.83 18.916 203.71 18.694 203.542 18.538C203.254 18.286 202.906 18.16 202.498 18.16C201.946 18.16 201.52 18.328 201.22 18.664C200.932 18.988 200.788 19.456 200.788 20.068V25H197.53V10.06Z M212.741 15.766V20.968C212.741 22.108 213.293 22.678 214.397 22.678C215.501 22.678 216.053 22.108 216.053 20.968V15.766H219.311V21.598C219.311 22.846 218.897 23.782 218.069 24.406C217.253 25.03 216.029 25.342 214.397 25.342C212.765 25.342 211.535 25.03 210.707 24.406C209.891 23.782 209.483 22.846 209.483 21.598V15.766H212.741Z" fill="#222222"/>
</svg>
