<svg xmlns="http://www.w3.org/2000/svg" viewBox="0 0 220 40" width="220" height="40" fill="none">
  <path fill="#8CC63F" fill-rule="evenodd" d="M25.0918 33.7993c7.0121-2.2075 12.0973-8.7609 12.0973-16.502C37.1891 7.74426 29.4448 0 19.8918 0 10.3387 0 2.59448 7.74426 2.59448 17.2973c0 7.7411 5.08518 14.2945 12.09732 16.502l5.2 6.0806 5.2-6.0806Z" clip-rule="evenodd"/>
  <path fill="#fff" d="M31.6155 19.988c-1.4895 1.7297-2.6907 3.0751-2.7868 3.1231-.096-.0961-1.2972-1.4414-2.7867-3.1231-1.3454-1.5375-1.97-2.3544-1.97-3.3634 0-1.1051.8649-2.018 2.1622-2.018.4804 0 .8648.1442 1.2492.3844-1.0571-3.3153-4.0841-5.66968-7.5916-5.66968-4.3724 0-7.8318 3.55558-7.8318 8.02398 0 4.4685 3.4594 8.0241 7.8318 8.0241 1.6817 0 2.9309-.4325 3.6517-.9129l1.5375 1.9699c-1.2492.961-3.4114 1.4895-5.1892 1.4895-5.8618 0-10.61861-4.7087-10.61861-10.5706 0-5.8618 4.75681-10.61857 10.61861-10.61857 5.0451 0 9.3213 3.50747 10.2823 8.21617.3844-.2402.7688-.3843 1.2492-.3843 1.2973 0 2.1622.9129 2.1622 2.018 0 1.057-.6246 1.8739-1.97 3.4114Z"/>
  <path class="logo-text" fill="#222" d="M47.9617 17.3511h.7479c.7816 0 1.3812-.1618 1.7989-.4853.4178-.3235.6266-.7886.6266-1.3952s-.2088-1.0717-.6266-1.3952c-.4177-.3236-1.0173-.4853-1.7989-.4853h-.7479v3.761Zm8.7117 8.432h-4.9319l-3.7798-5.864v5.864H44V10.5368h6.1649c.849 0 1.5901.128 2.2234.3842.6334.2426 1.1522.5796 1.5564 1.011.4177.4314.7277.9301.9298 1.4963.2156.5662.3234 1.1728.3234 1.8199 0 1.1593-.283 2.1029-.8489 2.8308-.5525.7145-1.3745 1.1998-2.466 1.4559l4.7904 6.2482ZM64.339 19.0901c-.1213-.5123-.3706-.9234-.7479-1.2335-.3773-.31-.8354-.4651-1.3744-.4651-.566 0-1.0309.1483-1.3947.4449-.3504.2966-.5727.7145-.6671 1.2537h4.1841Zm-4.2851 2.1231c0 1.5772.7411 2.3658 2.2234 2.3658.795 0 1.3947-.3235 1.7989-.9705h3.5373c-.7142 2.3725-2.4997 3.5588-5.3564 3.5588-.8759 0-1.6777-.1281-2.4053-.3842-.7277-.2696-1.3543-.6471-1.8798-1.1324-.5121-.4853-.9096-1.0649-1.1926-1.7389-.283-.6741-.4245-1.429-.4245-2.2647 0-.8628.1348-1.6379.4043-2.3254.2695-.701.6535-1.2941 1.1521-1.7794.4986-.4853 1.0983-.856 1.799-1.1122.7142-.2696 1.5159-.4044 2.4053-.4044.8759 0 1.6642.1348 2.3649.4044.7007.2562 1.2936.6336 1.7787 1.1324.4851.4988.8557 1.1121 1.1117 1.8401.2561.7144.3841 1.5233.3841 2.4264v.3842h-7.7011ZM77.2896 18.7665c-.6334-.4313-1.2734-.647-1.9202-.647-.3504 0-.6805.0606-.9905.182-.2964.1213-.5592.2965-.7883.5257-.229.2157-.411.4786-.5457.7886-.1213.2966-.1819.6336-.1819 1.011 0 .364.0606.701.1819 1.0111.1347.2965.3099.5594.5255.7886.2291.2157.4986.3842.8085.5055.31.1213.6401.182.9905.182.6872 0 1.3273-.2359 1.9202-.7078v3.114c-.9029.3909-1.7585.5864-2.567.5864-.7547 0-1.4756-.128-2.1628-.3842-.6738-.2561-1.2734-.6201-1.799-1.0919-.512-.4853-.923-1.0582-1.2329-1.7187-.31-.6741-.4649-1.4222-.4649-2.2445s.1482-1.5705.4446-2.2445c.2965-.6875.7008-1.2739 1.2128-1.7592.5121-.4988 1.1185-.883 1.8192-1.1526.7142-.2831 1.4755-.4246 2.284-.4246.8894 0 1.7114.1887 2.466.5662v3.1139ZM83.1358 24.3676l-5.0128-8.9577h4.2447l2.7692 5.318 2.6883-5.318h4.2043l-8.3277 15.5497h-4.1032l3.5372-6.592ZM99.9106 18.7665c-.6334-.4313-1.2734-.647-1.9202-.647-.3504 0-.6805.0606-.9905.182-.2964.1213-.5592.2965-.7883.5257-.229.2157-.411.4786-.5457.7886-.1213.2966-.1819.6336-.1819 1.011 0 .364.0606.701.1819 1.0111.1347.2965.3099.5594.5255.7886.2291.2157.4986.3842.8085.5055.31.1213.6401.182.9905.182.6872 0 1.3273-.2359 1.9202-.7078v3.114c-.9029.3909-1.7585.5864-2.567.5864-.7547 0-1.4756-.128-2.1628-.3842-.6738-.2561-1.2734-.6201-1.799-1.0919-.512-.4853-.923-1.0582-1.2329-1.7187-.31-.6741-.4649-1.4222-.4649-2.2445s.1482-1.5705.4446-2.2445c.2965-.6875.7008-1.2739 1.2128-1.7592.5121-.4988 1.1185-.883 1.8192-1.1526.7142-.2831 1.4755-.4246 2.284-.4246.8894 0 1.7114.1887 2.466.5662v3.1139ZM105.656 9v16.7831h-3.659V9h3.659ZM111.435 15.4099v10.3732h-3.658V15.4099h3.658Zm-3.901-3.9834c0-.2831.054-.546.162-.7886.108-.2562.256-.4786.445-.66731.188-.18873.404-.33701.646-.44485.257-.10785.526-.16177.809-.16177.283 0 .546.05392.788.16177.256.10784.479.25612.667.44485.189.18871.337.41111.445.66731.108.2426.162.5055.162.7886s-.054.5527-.162.8088c-.108.2426-.256.4583-.445.6471-.188.1887-.411.337-.667.4448-.242.1078-.505.1618-.788.1618-.283 0-.552-.054-.809-.1618-.242-.1078-.458-.2561-.646-.4448-.189-.1888-.337-.4045-.445-.6471-.108-.2561-.162-.5257-.162-.8088ZM113.556 15.4099h3.659v1.3144c.499-.6067 1.004-1.0111 1.516-1.2133.512-.2157 1.112-.3235 1.799-.3235.728 0 1.347.1213 1.859.364.526.2291.971.5594 1.335.9908.296.3505.498.7414.606 1.1728.108.4313.162.9234.162 1.4761v6.5919h-3.659V20.546c0-.5123-.04-.9235-.121-1.2335-.068-.3235-.196-.5797-.384-.7684-.162-.1617-.344-.2763-.546-.3437-.202-.0674-.418-.1011-.647-.1011-.62 0-1.098.1887-1.435.5661-.323.364-.485.8897-.485 1.5772v5.5405h-3.659V15.4099ZM129.743 20.546c0 .337.061.6538.182.9503.121.2831.283.5325.485.7482.216.2157.465.3842.748.5055.296.1213.613.182.95.182.323 0 .627-.0607.91-.182.296-.1213.545-.2898.747-.5055.216-.2157.385-.4651.506-.7482.135-.2965.202-.6066.202-.9301 0-.337-.067-.6471-.202-.9302-.121-.2831-.29-.5324-.506-.7481-.215-.2157-.471-.3842-.768-.5055-.283-.1214-.579-.182-.889-.182-.323 0-.627.0674-.91.2022-.283.1213-.532.2898-.747.5055-.216.2022-.391.4448-.526.7279-.121.2831-.182.5864-.182.91Zm8.207-5.1361v9.6655c0 .5796-.034 1.0986-.102 1.557-.067.4583-.161.8627-.282 1.2132-.162.4448-.418.856-.769 1.2334-.336.391-.747.728-1.233 1.0111-.485.2831-1.037.5055-1.657.6673-.606.1617-1.267.2426-1.981.2426-.808 0-1.55-.1011-2.223-.3033-.674-.2022-1.267-.4853-1.779-.8493-.499-.3505-.91-.7684-1.233-1.2537-.323-.4718-.539-.9908-.647-1.5569h4.124c.256.6875.835 1.0312 1.738 1.0312.768 0 1.354-.2157 1.758-.647.418-.4314.627-1.0313.627-1.7997v-.9908c-.269.2561-.532.4718-.788.6471-.243.1617-.492.2965-.748.4044-.256.1078-.526.182-.809.2224-.283.0539-.593.0809-.929.0809-.742 0-1.422-.1281-2.042-.3842-.62-.2561-1.159-.6134-1.617-1.0717-.445-.4583-.795-1.0043-1.051-1.6379-.243-.647-.364-1.3615-.364-2.1433 0-.7954.135-1.5301.404-2.2041.27-.6875.634-1.2806 1.092-1.7794.472-.5122 1.024-.9099 1.657-1.193.647-.2966 1.348-.4449 2.102-.4449 1.227 0 2.258.4584 3.093 1.375v-1.0919h3.659ZM147.302 10.5368v11.8897h4.75v3.3566h-9.09V10.5368h4.34ZM156.959 20.546c0 .3504.06.674.181.9705.135.2831.304.5325.506.7482.215.2157.465.3842.748.5055.296.1213.606.182.929.182.324 0 .627-.0607.91-.182.296-.1213.546-.2898.748-.5055.216-.2157.384-.4651.505-.7482.135-.2965.202-.6133.202-.9503 0-.3236-.067-.6269-.202-.91-.121-.2965-.289-.5526-.505-.7683-.202-.2157-.452-.3842-.748-.5055-.283-.1214-.586-.182-.91-.182-.323 0-.633.0606-.929.182-.283.1213-.533.2898-.748.5055-.202.2157-.371.465-.506.7481-.121.2831-.181.5864-.181.91Zm-3.861-.0405c0-.7684.155-1.4828.465-2.1434.31-.674.741-1.2536 1.293-1.7389.553-.4988 1.206-.8897 1.961-1.1728.768-.2831 1.604-.4247 2.506-.4247.89 0 1.712.1416 2.466.4247.769.2696 1.429.6538 1.981 1.1525.566.4853 1.004 1.0717 1.314 1.7592.31.6741.465 1.4222.465 2.2445s-.162 1.5772-.485 2.2647c-.31.674-.741 1.2604-1.294 1.7592-.552.4853-1.219.8628-2.001 1.1324-.768.2696-1.603.4044-2.506.4044-.89 0-1.712-.1348-2.466-.4044-.755-.2696-1.408-.6538-1.961-1.1526-.539-.4988-.963-1.0919-1.273-1.7794-.31-.701-.465-1.4761-.465-2.3254ZM175.225 18.7665c-.634-.4313-1.274-.647-1.92-.647-.351 0-.681.0606-.991.182-.296.1213-.559.2965-.788.5257-.229.2157-.411.4786-.546.7886-.121.2966-.182.6336-.182 1.011 0 .364.061.701.182 1.0111.135.2965.31.5594.526.7886.229.2157.498.3842.808.5055.31.1213.64.182.991.182.687 0 1.327-.2359 1.92-.7078v3.114c-.903.3909-1.759.5864-2.567.5864-.755 0-1.476-.128-2.163-.3842-.674-.2561-1.273-.6201-1.799-1.0919-.512-.4853-.923-1.0582-1.233-1.7187-.31-.6741-.465-1.4222-.465-2.2445s.148-1.5705.445-2.2445c.296-.6875.701-1.2739 1.213-1.7592.512-.4988 1.118-.883 1.819-1.1526.714-.2831 1.475-.4246 2.284-.4246.889 0 1.711.1887 2.466.5662v3.1139ZM180.455 20.5662c0 .337.06.6538.181.9503.122.2831.283.5325.486.7482.215.2157.464.3842.747.5055.297.1213.614.182.95.182.324 0 .627-.0607.91-.182.296-.1213.546-.2898.748-.5055.216-.2157.384-.4651.505-.7482.135-.283.202-.5864.202-.9099s-.067-.6268-.202-.9099c-.121-.2966-.289-.5527-.505-.7684-.202-.2157-.452-.3842-.748-.5055-.283-.1213-.586-.182-.91-.182-.336 0-.653.0607-.95.182-.283.1213-.532.2898-.747.5055-.203.2157-.364.4651-.486.7482-.121.2696-.181.5661-.181.8897Zm4.608-5.1563h3.679v10.3732h-3.679v-1.1526c-.781.9841-1.839 1.4761-3.173 1.4761-.755 0-1.449-.1348-2.082-.4044-.634-.2831-1.186-.674-1.658-1.1728-.471-.4988-.842-1.0852-1.111-1.7592-.256-.674-.384-1.4087-.384-2.204 0-.7414.128-1.4424.384-2.103.256-.674.613-1.2604 1.071-1.7592.458-.4987 1.004-.8897 1.637-1.1728.633-.2965 1.334-.4448 2.102-.4448 1.294 0 2.365.4516 3.214 1.3548v-1.0313ZM195.314 18.4632v7.3199h-3.658v-7.3199h-1.213v-3.0533h1.213V12.296h3.658v3.1139h2.082v3.0533h-2.082ZM202.153 20.546c0 .3504.061.674.182.9705.135.2831.303.5325.505.7482.216.2157.465.3842.748.5055.297.1213.607.182.93.182.323 0 .627-.0607.91-.182.296-.1213.545-.2898.748-.5055.215-.2157.384-.4651.505-.7482.135-.2965.202-.6133.202-.9503 0-.3236-.067-.6269-.202-.91-.121-.2965-.29-.5526-.505-.7683-.203-.2157-.452-.3842-.748-.5055-.283-.1214-.587-.182-.91-.182-.323 0-.633.0606-.93.182-.283.1213-.532.2898-.748.5055-.202.2157-.37.465-.505.7481-.121.2831-.182.5864-.182.91Zm-3.86-.0405c0-.7684.154-1.4828.464-2.1434.31-.674.742-1.2536 1.294-1.7389.553-.4988 1.206-.8897 1.961-1.1728.768-.2831 1.603-.4247 2.506-.4247.889 0 1.711.1416 2.466.4247.768.2696 1.428.6538 1.981 1.1525.566.4853 1.004 1.0717 1.314 1.7592.31.6741.465 1.4222.465 2.2445s-.162 1.5772-.485 2.2647c-.31.674-.742 1.2604-1.294 1.7592-.553.4853-1.22.8628-2.001 1.1324-.768.2696-1.604.4044-2.507.4044-.889 0-1.711-.1348-2.466-.4044-.754-.2696-1.408-.6538-1.96-1.1526-.539-.4988-.964-1.0919-1.274-1.7794-.31-.701-.464-1.4761-.464-2.3254ZM212.218 15.4099h3.659v1.6986c.39-.6201.869-1.092 1.435-1.4155.566-.337 1.226-.5055 1.981-.5055h.303c.121 0 .256.0135.404.0404v3.4982c-.485-.2426-1.011-.364-1.577-.364-.849 0-1.489.2562-1.92.7684-.418.4988-.626 1.2335-.626 2.2041v4.4485h-3.659V15.4099Z"/>
</svg>
