<svg width="90" height="24" viewBox="0 0 90 24" fill="none" xmlns="http://www.w3.org/2000/svg">
<path d="M28.4644 8.91465C27.9326 8.91465 27.4763 9.05939 27.0673 9.32372C25.9817 3.97745 21.0917 0 15.3804 0C8.70619 0 3.30957 5.32424 3.30957 11.9984C3.30957 18.6726 8.70619 24 15.3804 24C17.4289 24 19.8865 23.3958 21.2836 22.285L19.5246 20.0698C18.6813 20.5984 17.2841 21.105 15.3804 21.105C10.418 21.105 6.4909 17.0552 6.4909 11.9953C6.4909 6.93536 10.418 2.91701 15.3804 2.91701C19.3547 2.91701 22.7783 5.54137 23.9803 9.32372C23.5713 9.05939 23.1119 8.91465 22.5832 8.91465C21.1389 8.91465 20.1508 9.97509 20.1508 11.2023C20.1508 12.3823 20.8242 13.276 22.3661 15.0319C24.0779 16.9891 25.4278 18.5027 25.5254 18.6002C25.6229 18.5027 26.9697 16.9891 28.6815 15.035C30.2234 13.276 30.8968 12.3855 30.8968 11.2055C30.8968 9.97509 29.9088 8.91465 28.4644 8.91465Z" fill="#8CC63F"/>
<path fill-rule="evenodd" clip-rule="evenodd" d="M39.8115 13.7826C39.8115 11.0356 41.2558 8.91467 44.2924 8.91467C47.1119 8.91467 48.487 10.8908 48.4901 13.7826V14.1697H42.5145C42.5145 14.9406 42.9236 16.3378 44.777 16.3378C45.9098 16.3378 46.8255 15.7619 46.9451 15.6644L47.9803 17.373C47.4989 17.7601 46.149 18.4555 44.3648 18.4555C41.5233 18.4555 39.8115 16.5045 39.8115 13.7826ZM44.3144 10.6957C43.2791 10.6957 42.6278 11.4918 42.5806 12.4799H46.0011C45.9539 11.4918 45.3497 10.6957 44.3144 10.6957Z" fill="#8CC63F"/>
<path d="M36.199 9.20101V10.2394C36.7277 9.44331 37.379 8.98704 38.4615 8.98389C38.8234 8.98389 39.1852 9.08144 39.5219 9.20101L39.2104 11.5642C38.8989 11.3722 38.537 11.2275 38.0556 11.2275C36.3689 11.2275 36.199 12.8166 36.199 14.0218V18.1629H33.6439V9.20101H36.199Z" fill="#8CC63F"/>
<path d="M75.3473 3.97741H77.9024V18.166H75.3473V3.97741Z" fill="#8CC63F"/>
<path d="M54.3902 16.3126C52.9931 16.3126 52.1246 15.205 52.1246 13.7323C52.1246 12.3603 52.9427 11.0576 54.4878 11.0576C55.2808 11.0576 55.9793 11.3943 56.4639 11.8285V9.46534C55.8377 9.08144 54.9944 8.91152 54.2958 8.91152C51.4512 8.91152 49.5254 10.96 49.5254 13.704C49.5254 16.3787 51.3568 18.4492 54.0787 18.4492C55.7402 18.4492 56.895 17.7286 57.0649 17.5839L56.0077 15.8249C55.8849 15.9256 55.2776 16.3126 54.3902 16.3126Z" fill="#8CC63F"/>
<path d="M69.5668 13.7323C69.5668 15.205 70.4322 16.3126 71.8325 16.3126C72.723 16.3126 73.3271 15.9256 73.4436 15.8249L74.504 17.5839C74.3372 17.7286 73.1793 18.4492 71.5178 18.4492C68.7959 18.4492 66.9613 16.3787 66.9613 13.704C66.9613 10.96 68.8934 8.91152 71.7349 8.91152C72.4335 8.91152 73.2768 9.08144 73.903 9.46534V11.8285C73.4184 11.3943 72.723 11.0576 71.9269 11.0576C70.385 11.0576 69.5668 12.3603 69.5668 13.7323Z" fill="#8CC63F"/>
<path fill-rule="evenodd" clip-rule="evenodd" d="M87.7831 13.7826C87.7831 10.8908 86.4111 8.91467 83.5917 8.91467C80.5551 8.91467 79.1108 11.0356 79.1108 13.7826C79.1108 16.5045 80.8226 18.4555 83.6641 18.4555C85.4483 18.4555 86.7982 17.7601 87.2796 17.373L86.2444 15.6644C86.1248 15.7619 85.2091 16.3378 84.0763 16.3378C82.2197 16.3378 81.8106 14.9406 81.8106 14.1697H87.7863V13.7826H87.7831ZM81.8799 12.4799C81.9271 11.4918 82.5784 10.6957 83.6137 10.6957C84.649 10.6957 85.2532 11.4918 85.3003 12.4799H81.8799Z" fill="#8CC63F"/>
<path d="M62.3609 13.9746L64.6517 9.20099H67.3264L60.9669 22.1906H58.2701L60.9417 16.7437L57.1373 9.20099H60.1707L62.3609 13.9746Z" fill="#8CC63F"/>
</svg>
