<svg xmlns="http://www.w3.org/2000/svg" fill="none" width="120" height="24" viewBox="0 0 206 44"><path fill="#8DC63F" d="m52.234 24.703-3.583 10.183-3.457-10.309H43.56l-3.646 10.309-3.331-10.183h-3.08l5.28 15.211h2.074l3.457-9.743 3.332 9.743h2.074l5.594-15.211zm-11.503-7.606c1.32 0 2.515-.314 3.646-.88V12.76c-.943 1.069-2.137 1.697-3.583 1.697-2.891 0-4.965-2.263-4.965-5.091 0-2.829 2.011-5.217 4.902-5.217 1.509 0 2.64.628 3.646 1.697V2.389c-1.194-.629-2.326-.943-3.646-.943-4.4 0-7.92 3.52-7.92 7.857.063 4.463 3.583 7.794 7.92 7.794m21.686 14.08c-.88-1.006-1.886-1.571-3.206-1.571-2.828 0-4.714 2.451-4.714 5.154 0 2.766 1.886 5.217 4.777 5.217a3.87 3.87 0 0 0 3.143-1.571v1.257h2.703V29.92h-2.703zm-2.451 6.349c-1.509 0-2.703-1.257-2.703-2.703a2.683 2.683 0 0 1 2.703-2.703 2.683 2.683 0 0 1 2.703 2.703c0 1.446-1.195 2.703-2.703 2.703m7.165 2.137h2.703V22.88h-2.703zm9.303-10.057c-3.143 0-5.091 2.074-5.091 5.154 0 3.143 2.074 5.154 5.217 5.154 2.2 0 3.897-.943 4.777-3.017l-2.514-.377c-.566.88-1.257 1.32-2.326 1.32-1.634 0-2.326-1.069-2.388-2.577H81.4v-.377c0-3.143-1.76-5.28-4.966-5.28m-2.2 3.897c.252-1.194 1.006-1.949 2.263-1.949s2.074.755 2.326 1.949zm-4.525-22v5.28h2.702v-6.286c0-.817-.062-1.634-.502-2.326-.566-.942-1.635-1.382-2.703-1.382-1.383 0-2.452.628-3.206 1.76-.691-1.195-1.634-1.76-3.017-1.76-1.257 0-2.137.502-2.954 1.382V7.103h-2.703v9.68h2.703v-4.966c0-.566 0-1.32.314-1.886.314-.565.943-.88 1.508-.88.629 0 1.195.378 1.446.943.189.44.189 1.132.189 1.635v5.154h2.703v-4.966c0-1.257.251-2.766 1.885-2.766 1.446 0 1.635 1.258 1.635 2.452M145.703 0H143v16.783h2.703zm6.097 17.097c1.383 0 2.326-.566 3.269-1.634v1.508c0 1.572-.692 2.766-2.389 2.766-1.194 0-2.011-.566-2.326-1.76H147.4c.251 2.64 2.64 4.086 5.154 4.086 1.572 0 3.08-.503 4.149-1.697 1.006-1.195 1.068-2.326 1.068-3.897V7.103h-2.702V8.36c-.88-1.069-1.76-1.571-3.143-1.571-2.955 0-4.777 2.514-4.777 5.28.062 2.702 1.76 5.028 4.651 5.028m.88-7.857a2.683 2.683 0 0 1 2.703 2.703c0 1.508-1.194 2.766-2.703 2.766s-2.703-1.258-2.703-2.766a2.683 2.683 0 0 1 2.703-2.703m-22.314 7.857c1.257 0 2.451-.566 3.143-1.571v1.257h2.702v-9.68h-2.702V8.36c-.88-1.006-1.886-1.571-3.206-1.571-2.829 0-4.714 2.388-4.714 5.154s1.885 5.154 4.777 5.154m.754-7.857a2.683 2.683 0 0 1 2.703 2.703 2.683 2.683 0 0 1-2.703 2.703c-1.509 0-2.703-1.257-2.703-2.703a2.683 2.683 0 0 1 2.703-2.703M27.217 20.051c-.566 0-1.068.126-1.508.44-1.195-5.845-6.475-10.12-12.635-10.12C5.846 10.371 0 16.154 0 23.383c0 7.228 5.846 13.011 13.074 13.011 2.2 0 4.903-.628 6.412-1.885L17.6 32.12c-.943.566-2.451 1.131-4.463 1.131-5.343 0-9.617-4.4-9.617-9.868 0-5.469 4.274-9.806 9.617-9.806 4.274 0 7.983 2.829 9.303 6.914-.44-.314-.943-.44-1.509-.44-1.571 0-2.64 1.132-2.64 2.452 0 1.257.755 2.263 2.389 4.148a128.645 128.645 0 0 0 3.394 3.835c.126-.126 1.572-1.76 3.395-3.835 1.697-1.885 2.388-2.891 2.388-4.148 0-1.32-1.068-2.452-2.64-2.452M45.571 22h3.08L56.51 7.103h-3.08L50.6 12.57 47.709 7.04h-3.143l4.588 8.234zm52.549 0h3.08l7.857-14.897h-3.08l-2.766 5.531-2.891-5.531h-3.143l4.589 8.234zm-20.994-9.869c0-1.634.503-2.891 2.325-2.891.503 0 .88.063 1.32.314l.378-2.577c-.378-.126-.755-.251-1.195-.251-1.32 0-2.2.691-2.828 1.76V7.04h-2.703v9.68h2.703zm61.16 4.652h2.703v-9.68h-2.703zm22.125 16.971c-.942-.44-1.948-.628-1.948-1.32 0-.44.44-.817.88-.817.566 0 1.068.314 1.446.629l1.194-1.572c-.754-.691-2.074-1.005-3.08-1.005-1.76 0-3.017 1.32-3.017 3.08 0 1.508.943 2.074 1.885 2.514.943.377 1.886.628 1.886 1.446 0 .628-.503 1.005-1.068 1.005-.818 0-1.509-.503-2.012-1.131l-1.257 1.634a4.326 4.326 0 0 0 3.331 1.572c2.012 0 3.709-1.258 3.709-3.395.063-1.571-.943-2.263-1.949-2.64m11-16.971h2.703V0h-2.703zm-6.662-4.212-2.892-5.531h-3.143l4.589 8.234L159.657 22h3.08l7.857-14.897h-3.08zm-14.458 17.035c-3.268 0-4.84 2.325-4.84 5.28 0 2.954 1.823 5.028 4.903 5.028 1.949 0 3.395-.754 3.897-1.194l-1.131-1.823c-.126.126-1.131.754-2.326.754-2.011 0-2.451-1.508-2.451-2.325h6.474v-.44c0-3.143-1.508-5.28-4.526-5.28m-1.885 3.897c.063-1.069.754-1.949 1.885-1.949 1.132 0 1.76.88 1.823 1.949zm27.217-21.56c0 2.954 2.326 5.154 5.28 5.154.943 0 1.697-.188 2.514-.628v-2.64c-.628.565-1.32.817-2.2.817-1.571 0-2.828-1.132-2.828-2.703 0-1.572 1.257-2.703 2.828-2.703.88 0 1.509.314 2.2.817V7.354c-.754-.44-1.571-.565-2.451-.565-2.955 0-5.343 2.2-5.343 5.154m-34.257 27.72h2.765v-15.4h-2.765zm61.663-32.56v5.468c0 1.32-.566 2.2-1.949 2.2s-1.949-.88-1.949-2.2V7.103h-2.702v5.908c0 2.892 2.011 4.086 4.714 4.086 2.64 0 4.714-1.194 4.714-4.086V7.103zm-12.195-.314c-1.32 0-2.263.502-3.017 1.571V0h-2.703v16.783h2.703v-4.966c0-1.446.377-2.766 2.074-2.766 1.572 0 1.886 1.069 1.886 2.389v5.28h2.703v-6.034c0-1.006-.063-1.949-.754-2.766-.755-.754-1.823-1.131-2.892-1.131M139.669 1.32c-.88 0-1.635.754-1.635 1.634 0 .88.755 1.635 1.635 1.635s1.634-.755 1.634-1.635-.754-1.634-1.634-1.634m-23.132 10.057v5.406h2.703v-6.16c0-1.006-.063-1.886-.754-2.703-.692-.817-1.823-1.194-2.829-1.194-1.383 0-2.137.44-3.08 1.508V7.04h-2.703v9.68h2.703v-5.029c0-1.445.377-2.702 2.074-2.702 1.572.062 1.886 1.068 1.886 2.388m-8.8 18.229c-3.268 0-4.84 2.325-4.84 5.28 0 2.954 1.823 5.028 4.903 5.028 1.949 0 3.394-.754 3.897-1.194l-1.131-1.823c-.126.126-1.132.754-2.326.754-2.011 0-2.451-1.508-2.451-2.325h6.474v-.44c0-3.143-1.509-5.28-4.526-5.28m-1.886 3.897c.063-1.069.755-1.949 1.886-1.949 1.132 0 1.76.88 1.823 1.949zM85.36 32.37c0-.565.566-.817 1.006-.817.628 0 1.131.315 1.634.629l1.32-1.572c-.943-.691-2.011-1.005-3.143-1.005-1.823 0-3.457 1.068-3.457 3.08 0 3.268 4.337 2.451 4.337 4.085 0 .692-.628 1.069-1.257 1.069-.943 0-1.697-.503-2.263-1.131l-1.446 1.634c.943 1.006 2.326 1.634 3.709 1.634 2.074 0 4.086-1.194 4.086-3.457-.063-3.331-4.526-2.703-4.526-4.149m3.269-19.8c0 1.32-.566 2.2-1.949 2.2s-1.949-.88-1.949-2.2V7.103H82.03v5.908c0 2.892 2.011 4.086 4.714 4.086 2.64 0 4.714-1.194 4.714-4.086V7.103H88.63zm10.308 18.48V29.92h-2.766v9.68h2.766v-4.463c0-1.32.189-3.017 2.012-3.017.502 0 .942.126 1.257.377l.314-2.577c-.377-.126-.754-.251-1.131-.251-1.132.062-1.886.502-2.452 1.382m38.594 6.6c-1.508 0-2.451-1.194-2.451-2.765 0-1.509.88-2.892 2.577-2.892.88 0 1.634.377 2.137.817v-2.577c-.691-.44-1.571-.628-2.325-.628-3.08 0-5.155 2.2-5.155 5.217 0 2.891 2.012 5.154 4.903 5.154 1.823 0 3.08-.754 3.206-.943l-1.132-1.885c-.125.062-.817.502-1.76.502m-7.794-7.731-2.451 5.154-2.389-5.154h-3.268l4.148 8.171L122.886 44h2.891l6.914-14.08zm-11.063 7.731c-1.508 0-2.451-1.194-2.451-2.765 0-1.509.88-2.892 2.577-2.892.88 0 1.634.377 2.137.817v-2.577c-.691-.44-1.571-.628-2.326-.628-3.08 0-5.154 2.2-5.154 5.217 0 2.891 2.012 5.154 4.903 5.154 1.823 0 3.017-.754 3.206-.943l-1.132-1.885c-.188.062-.817.502-1.76.502"></path></svg>
