<svg
  viewBox="0 0 128 126"
  fill="none"
  xmlns="http://www.w3.org/2000/svg"
>
  <circle cx="24" cy="116" r="10" fill="#4D6B87" />
  <circle cx="104" cy="116" r="10" fill="#4D6B87" />
  <path
    d="M100 102H108V116C108 118.209 106.209 120 104 120C101.791 120 100 118.209 100 116V102Z"
    fill="#d7e7f5"
  />
  <path
    d="M20 102H28V116C28 118.209 26.2091 120 24 120C21.7909 120 20 118.209 20 116V102Z"
    fill="#d7e7f5"
  />
  <path
    className="body"
    d="M0 18H128V26H0V18Z"
    fill="#2A8CC1"
  />
  <path
    className="body"
    d="M4 18H124L120.454 92.4757C120.2 97.8075 115.803 102 110.465 102H17.5351C12.1972 102 7.80036 97.8075 7.54646 92.4757L4 18Z"
    fill="#2A8CC1"
  />
  <path
    className="lid"
    d="M4 12C4 5.37258 9.37258 0 16 0H112C118.627 0 124 5.37258 124 12V16H4V12Z"
    fill="#2A8CC1"
  />
  <path
    className="lid"
    d="M0 12C0 9.79086 1.79086 8 4 8H124C126.209 8 128 9.79086 128 12V16H0V12Z"
    fill="#2A8CC1"
  />
</svg>
