<svg
  viewBox="0 0 64 96"
  fill="none"
  xmlns="http://www.w3.org/2000/svg"
>
  <path
    d="M0 4.2578C0 1.95052 1.94672 0.12167 4.24951 0.265595L60.2495 3.76559C62.3577 3.89735 64 5.64555 64 7.7578V12H0V4.2578Z"
    fill="#d7e7f5"
  />
  <path
    d="M60 14H4L7.21958 78.3916C8.10228 78.1366 9.03518 78 10 78C15.5228 78 20 82.4771 20 88C20 90.2512 19.2561 92.3287 18.0007 94H48.39C52.653 94 56.1671 90.6572 56.38 86.3995L60 14Z"
    fill="#d7e7f5"
  />
  <circle
    cx="10"
    cy="88"
    r="8"
    fill="#d7e7f5"
  />
  <path
    className="body"
    fillRule="evenodd"
    clipRule="evenodd"
    d="M10 18C8.89543 18 8 18.8954 8 20V22H12.2083L13.4692 46.2081C13.5799 48.3335 15.3355 50 17.4638 50H46.5362C48.6645 50 50.4201 48.3335 50.5308 46.2081L51.7917 22H56V20C56 18.8954 55.1046 18 54 18H52H12H10Z"
    fill="#2A8CC1"
  />
</svg>
