<svg
  viewBox="0 0 118 96"
  fill="none"
  xmlns="http://www.w3.org/2000/svg"
>
  <path
    d="M0 4.2578C0 1.95052 1.94672 0.12167 4.24951 0.265595L60.2495 3.76559C62.3577 3.89735 64 5.64555 64 7.7578V12H0V4.2578Z"
    fill="#d7e7f5"
  />
  <path
    d="M60 14H4L7.21958 78.3916C8.10228 78.1366 9.03518 78 10 78C15.5228 78 20 82.4771 20 88C20 90.2512 19.2561 92.3287 18.0007 94H48.39C52.653 94 56.1671 90.6572 56.38 86.3995L60 14Z"
    fill="#d7e7f5"
  />
  <circle
    cx="10"
    cy="88"
    r="8"
    fill="#d7e7f5"
  />
  <path
    className="body"
    fillRule="evenodd"
    clipRule="evenodd"
    d="M115 63H67L68.7586 90.2575C68.8943 92.3623 70.6411 94 72.7503 94H109.25C111.359 94 113.106 92.3623 113.241 90.2575L115 63ZM87 67C85.8954 67 85 67.8954 85 69C85 70.1046 85.8954 71 87 71H95C96.1046 71 97 70.1046 97 69C97 67.8954 96.1046 67 95 67H87Z"
    fill="#2A8CC1"
  />
  <path
    className="lid"
    d="M64 60C64 58.8954 64.8954 58 66 58H116C117.105 58 118 58.8954 118 60V62H64V60Z"
    fill="#2A8CC1"
  />
</svg>
