<svg
  viewBox="0 0 46 31"
  fill="none"
  xmlns="http://www.w3.org/2000/svg"
>
  <path
    className="body"
    fillRule="evenodd"
    clipRule="evenodd"
    d="M43.4445 4.30554H2.55566L4.05369 27.7773C4.16936 29.5898 5.65734 31 7.45403 31H38.5462C40.3429 31 41.8308 29.5898 41.9465 27.7773L43.4445 4.30554ZM19.5927 7.74999C18.6518 7.74999 17.889 8.52105 17.889 9.47221C17.889 10.4234 18.6518 11.1944 19.5927 11.1944H26.4075C27.3484 11.1944 28.1112 10.4234 28.1112 9.47221C28.1112 8.52105 27.3484 7.74999 26.4075 7.74999H19.5927Z"
    fill="#2A8CC1"
  />
  <path
    className="lid"
    d="M0 2C0 0.895431 0.895431 0 2 0H44C45.1046 0 46 0.895431 46 2V3.44444H0V2Z"
    fill="#2A8CC1"
  />
</svg>
