<svg
  viewBox="0 0 31 31"
  fill="none"
  xmlns="http://www.w3.org/2000/svg"
>
  <path
    className="body"
    d="M28.2949 4.30554H2.58337L4.66302 27.8599C4.81995 29.6373 6.30187 31 8.07781 31H22.8004C24.5764 31 26.0583 29.6373 26.2152 27.8599L26.787 22.2451C26.5734 22.1611 26.3733 22.0324 26.2007 21.859L14.0802 9.6811C13.4108 9.00853 13.4108 7.91808 14.0802 7.24551C14.7496 6.57294 15.8349 6.57294 16.5043 7.24551L27.1656 17.9573L28.2949 4.30554Z"
    fill="#2A8CC1"
  />
  <path
    className="body"
    d="M16.0452 8.0022L28.1657 20.1801C28.5004 20.5164 28.5004 21.0617 28.1657 21.3979C27.831 21.7342 27.2883 21.7342 26.9536 21.3979L14.8331 9.22C14.4984 8.88371 14.4984 8.33849 14.8331 8.0022C15.1678 7.66592 15.7105 7.66592 16.0452 8.0022Z"
    fill="#2A8CC1"
  />
  <path
    className="lid"
    d="M0 2C0 0.895431 0.89543 0 2 0H29C30.1046 0 31 0.895431 31 2V3.44444H0V2Z"
    fill="#2A8CC1"
  />
</svg>
