<svg
  viewBox="0 0 104 96"
  fill="none"
  xmlns="http://www.w3.org/2000/svg"
>
  <path
    d="M0 4.2578C0 1.95052 1.94672 0.12167 4.24951 0.265595L60.2495 3.76559C62.3577 3.89735 64 5.64555 64 7.7578V12H0V4.2578Z"
    fill="#d7e7f5"
  />
  <path
    d="M60 14H4L7.21958 78.3916C8.10228 78.1366 9.03518 78 10 78C15.5228 78 20 82.4771 20 88C20 90.2512 19.2561 92.3287 18.0007 94H48.39C52.653 94 56.1671 90.6572 56.38 86.3995L60 14Z"
    fill="#d7e7f5"
  />
  <circle

    cx="10"
    cy="88"
    r="8"
    fill="#d7e7f5"
  />
  <path
    className="body"
    d="M79 59C77.8954 59 77 59.8954 77 61V63H79V62C79 61.4477 79.4477 61 80 61L88 61C88.5523 61 89 61.4477 89 62V63H91V61C91 59.8954 90.1046 59 89 59H79Z"
    fill="#2A8CC1"
  />
  <path
    className="body"
    fillRule="evenodd"
    clipRule="evenodd"
    d="M68 78.0002L64 63.0004L84.6452 65.0004L104 63.0004L100 79.0002L104 94.0002H64L68 78.0002ZM89 75C90.1046 75 91 74.1046 91 73V67C89.8954 67 89 67.8954 89 69V72C89 72.5523 88.5523 73 88 73H80C79.4477 73 79 72.5523 79 72L79 69C79 67.8954 78.1046 67 77 67V73C77 74.1046 77.8954 75 79 75L89 75Z"
    fill="#2A8CC1"
  />
</svg>
