<svg
  viewBox="0 0 34 30"
  fill="none"
  xmlns="http://www.w3.org/2000/svg"
>
  <path
    className="body"
    d="M12.75 0C11.8111 0 11.05 0.767506 11.05 1.71427V3.42853H12.75V2.57141C12.75 2.09803 13.1306 1.71427 13.6 1.71427L20.4 1.71427C20.8694 1.71427 21.25 2.09803 21.25 2.57141V3.42853H22.95V1.71427C22.95 0.767506 22.1889 0 21.25 0H12.75Z"
    fill="#2A8CC1"
  />
  <path
    className="body"
    fillRule="evenodd"
    clipRule="evenodd"
    d="M3.4 16.2858L2.88099e-05 3.42887L17.5484 5.14316L34 3.42886L30.6 17.1429L34 30H0L3.4 16.2858ZM21.25 13.7142C22.1889 13.7142 22.95 12.9467 22.95 11.9999V6.8571C22.0111 6.8571 21.25 7.6246 21.25 8.57137V11.1428C21.25 11.6162 20.8694 11.9999 20.4 11.9999H13.6C13.1306 11.9999 12.75 11.6162 12.75 11.1428V8.57137C12.75 7.6246 11.9889 6.8571 11.05 6.8571V11.9999C11.05 12.9467 11.8111 13.7142 12.75 13.7142L21.25 13.7142Z"
    fill="#2A8CC1"
  />
</svg>
