<svg
  viewBox="0 0 100 96"
  fill="none"
  xmlns="http://www.w3.org/2000/svg"
>
  <path
    d="M0 4.2578C0 1.95052 1.94672 0.12167 4.24951 0.265595L60.2495 3.76559C62.3577 3.89735 64 5.64555 64 7.7578V12H0V4.2578Z"
    fill="#d7e7f5"
  />
  <path
    d="M60 14H4L7.21958 78.3916C8.10228 78.1366 9.03518 78 10 78C15.5228 78 20 82.4771 20 88C20 90.2512 19.2561 92.3287 18.0007 94H48.39C52.653 94 56.1671 90.6572 56.38 86.3995L60 14Z"
    fill="#d7e7f5"
  />
  <circle
    cx="10"
    cy="88"
    r="8"
    fill="#d7e7f5"
  />
  <path
    className="body"
    d="M96.8585 63H67L69.4151 90.3535C69.5973 92.4175 71.3182 94 73.3806 94H90.4779C92.5403 94 94.2612 92.4175 94.4435 90.3535L95.1075 83.833C94.8594 83.7355 94.627 83.586 94.4266 83.3847L80.3511 69.2426C79.5738 68.4615 79.5738 67.1952 80.3511 66.4142C81.1285 65.6331 82.3889 65.6331 83.1662 66.4142L95.5471 78.8537L96.8585 63Z"
    fill="#2A8CC1"
  />
  <path
    className="body"
    d="M82.633 67.2929L96.7085 81.435C97.0972 81.8256 97.0972 82.4587 96.7085 82.8492C96.3198 83.2398 95.6896 83.2398 95.3009 82.8492L81.2255 68.7071C80.8368 68.3166 80.8368 67.6834 81.2255 67.2929C81.6142 66.9024 82.2444 66.9024 82.633 67.2929Z"
    fill="#2A8CC1"
  />
  <path
    className="lid"
    d="M64 60C64 58.8954 64.8954 58 66 58H98C99.1046 58 100 58.8954 100 60V62H64V60Z"
    fill="#2A8CC1"
  />
</svg>
