<svg
  viewBox="0 0 128 120"
  fill="none"
  xmlns="http://www.w3.org/2000/svg"
>
  <rect
    x="4"
    y="112"
    width="8"
    height="8"
    fill="#d7e7f5"
  />
  <rect
    x="116"
    y="112"
    width="8"
    height="8"
    fill="#d7e7f5"
  />
  <path
    fillRule="evenodd"
    clipRule="evenodd"
    d="M63 38H4V110H63V38ZM59 42H55V54H59V42Z"
    fill="#d7e7f5"
  />
  <path
    fillRule="evenodd"
    clipRule="evenodd"
    d="M124 38H65V110H124V38ZM73 42H69V54H73V42Z"
    fill="#d7e7f5"
  />
  <rect
    y="28"
    width="128"
    height="8"
    fill="#d7e7f5"
  />
  <path
    d="M42 12C42 5.37258 47.3726 0 54 0C60.6274 0 66 5.37258 66 12V28H62V12C62 7.58172 58.4183 4 54 4C49.5817 4 46 7.58172 46 12L42 12Z"
    fill="#d7e7f5"
  />
  <path
    d="M69 23H73V28H69V23Z"
    fill="#d7e7f5"
  />
  <path
    d="M59 23H55V28H59V23Z"
    fill="#d7e7f5"
  />
  <path
    className="body"
    d="M107.859 75H78L80.4151 102.353C80.5973 104.418 82.3182 106 84.3806 106H101.478C103.54 106 105.261 104.418 105.443 102.353L106.107 95.833C105.859 95.7355 105.627 95.586 105.427 95.3847L91.3511 81.2426C90.5738 80.4615 90.5738 79.1952 91.3511 78.4142C92.1285 77.6331 93.3889 77.6331 94.1662 78.4142L106.547 90.8537L107.859 75Z"
    fill="#2A8CC1"
  />
  <path
    className="body"
    d="M93.633 79.2929L107.708 93.435C108.097 93.8256 108.097 94.4587 107.708 94.8492C107.32 95.2398 106.69 95.2398 106.301 94.8492L92.2255 80.7071C91.8368 80.3166 91.8368 79.6834 92.2255 79.2929C92.6142 78.9024 93.2444 78.9024 93.633 79.2929Z"
    fill="#2A8CC1"
  />
  <path
    className="lid"
    d="M75 72C75 70.8954 75.8954 70 77 70H109C110.105 70 111 70.8954 111 72V74H75V72Z"
    fill="#2A8CC1"
  />
</svg>
