<svg
  viewBox="0 0 101 96"
  fill="none"
  xmlns="http://www.w3.org/2000/svg"
>
  <path
    d="M0 4.25781C0 1.95052 1.94672 0.12167 4.24951 0.265595L60.2495 3.76559C62.3577 3.89735 64 5.64555 64 7.7578V12H0V4.25781Z"
    fill="#d7e7f5"
  />
  <path
    d="M60 14H4L7.21958 78.3916C8.10228 78.1366 9.03518 78 10 78C15.5228 78 20 82.4771 20 88C20 90.2512 19.2561 92.3287 18.0007 94H48.39C52.653 94 56.1671 90.6572 56.38 86.3995L60 14Z"
    fill="#d7e7f5"
  />
  <circle
    cx="10"
    cy="88"
    r="8"
    fill="#d7e7f5"
  />
  <path
    className="body"
    d="M82.2106 33.3304L78.9322 30L75.7502 33.2325L81.5908 39.1658C72.0721 39.6468 64.5 47.6394 64.5 57.4286V84.8571C64.5 89.9066 68.5294 94 73.5 94H91.5C96.4706 94 100.5 89.9066 100.5 84.8571V57.4286C100.5 47.4483 92.6294 39.3355 82.8496 39.1462L88.6709 33.2325L85.489 30L82.2106 33.3304Z"
    fill="#2A8CC1"
  />
</svg>
